<svg xmlns="http://www.w3.org/2000/svg" viewBox="0 0 30.74 30.75"><defs><style>.cls-1{fill:#e6e7e8;}.cls-2{fill:#5a4a42;}.cls-3{fill:#faaf40;}.cls-4{fill:#eb008b;}.cls-5{fill:#ec1c24;}.cls-6{fill:#fff100;}.cls-7{fill:#00a551;}.cls-8{fill:#00adee;}.cls-9{fill:#213652;}.cls-10{fill:#c3996b;}.cls-11{fill:#a87c4f;}.cls-12{fill:#d0d2d3;}.cls-12,.cls-13,.cls-14{stroke:#231f20;stroke-miterlimit:10;stroke-width:0.25px;}.cls-13{fill:#fff;}.cls-14{fill:none;}.cls-15{fill:#1b75bb;}.cls-16{fill:#754c28;}</style></defs><g id="Layer_2" data-name="Layer 2"><g id="Layer_1-2" data-name="Layer 1"><path class="cls-1" d="M15.2,15.46,9.45,29.35a.35.35,0,0,0,.32.48H21.28a.34.34,0,0,0,.32-.48L15.85,15.46A.36.36,0,0,0,15.2,15.46Z"/><path class="cls-2" d="M15.14,15.19,1.25,20.94a.35.35,0,0,0-.11.57l8.13,8.14a.35.35,0,0,0,.57-.11L15.6,15.65A.35.35,0,0,0,15.14,15.19Z"/><path class="cls-3" d="M15.32,14.92,1.43,9.17a.35.35,0,0,0-.49.32V21a.36.36,0,0,0,.49.32l13.89-5.75A.36.36,0,0,0,15.32,14.92Z"/><path class="cls-4" d="M15.61,14.86,9.86,1A.35.35,0,0,0,9.29.86L1.15,9a.35.35,0,0,0,.12.57l13.88,5.75A.35.35,0,0,0,15.61,14.86Z"/><path class="cls-5" d="M15.86,15,21.61,1.14a.34.34,0,0,0-.32-.48H9.78a.34.34,0,0,0-.32.48L15.21,15A.35.35,0,0,0,15.86,15Z"/><path class="cls-6" d="M15.91,15.33,29.8,9.57A.35.35,0,0,0,29.92,9L21.78.87a.35.35,0,0,0-.57.11L15.46,14.87A.35.35,0,0,0,15.91,15.33Z"/><path class="cls-7" d="M15.75,15.58l13.88,5.75a.36.36,0,0,0,.49-.33V9.5a.35.35,0,0,0-.49-.32L15.75,14.93A.35.35,0,0,0,15.75,15.58Z"/><path class="cls-8" d="M15.45,15.63,21.2,29.52a.35.35,0,0,0,.57.11l8.14-8.13a.35.35,0,0,0-.11-.57L15.91,15.17A.35.35,0,0,0,15.45,15.63Z"/><path class="cls-1" d="M15.06,15.49,10.54,29.83a.35.35,0,0,0,.37.45l11.46-1a.35.35,0,0,0,.28-.51L15.71,15.43A.36.36,0,0,0,15.06,15.49Z"/><path class="cls-2" d="M15,15.23,1.64,22.17a.34.34,0,0,0-.06.57l8.81,7.4A.35.35,0,0,0,11,30l4.52-14.34A.34.34,0,0,0,15,15.23Z"/><path class="cls-3" d="M15.13,14.94.79,10.42a.35.35,0,0,0-.45.36l1,11.47a.35.35,0,0,0,.51.27l13.33-6.94A.35.35,0,0,0,15.13,14.94Z"/><path class="cls-4" d="M15.42,14.86,8.47,1.52a.34.34,0,0,0-.57-.06L.5,10.28a.34.34,0,0,0,.16.55L15,15.35A.35.35,0,0,0,15.42,14.86Z"/><path class="cls-5" d="M15.68,15,20.2.67a.36.36,0,0,0-.37-.46l-11.46,1a.35.35,0,0,0-.28.51L15,15.06A.35.35,0,0,0,15.68,15Z"/><path class="cls-6" d="M15.76,15.29,29.09,8.35a.35.35,0,0,0,.07-.58L20.34.38a.34.34,0,0,0-.55.16L15.26,14.88A.35.35,0,0,0,15.76,15.29Z"/><path class="cls-7" d="M15.61,15.56,30,20.08a.35.35,0,0,0,.45-.37l-1-11.46A.35.35,0,0,0,28.89,8L15.56,14.91A.35.35,0,0,0,15.61,15.56Z"/><path class="cls-8" d="M15.32,15.64l7,13.33a.34.34,0,0,0,.57.06l7.4-8.81a.36.36,0,0,0-.16-.56L15.74,15.14A.36.36,0,0,0,15.32,15.64Z"/><path class="cls-1" d="M15.09,15.64,11.83,30.32a.34.34,0,0,0,.4.41l11.33-2a.35.35,0,0,0,.24-.53L15.72,15.53A.34.34,0,0,0,15.09,15.64Z"/><path class="cls-2" d="M15,15.38,2.3,23.46a.35.35,0,0,0,0,.58l9.43,6.6a.35.35,0,0,0,.54-.21L15.5,15.75A.34.34,0,0,0,15,15.38Z"/><path class="cls-3" d="M15.1,15.09.43,11.83a.35.35,0,0,0-.42.4L2,23.56a.36.36,0,0,0,.54.24l12.67-8.08A.34.34,0,0,0,15.1,15.09Z"/><path class="cls-4" d="M15.38,15,7.3,2.3a.35.35,0,0,0-.58,0L.12,11.71a.35.35,0,0,0,.22.54L15,15.51A.35.35,0,0,0,15.38,15Z"/><path class="cls-5" d="M15.66,15.1,18.91.43a.35.35,0,0,0-.4-.42L7.18,2a.36.36,0,0,0-.24.54L15,15.21A.35.35,0,0,0,15.66,15.1Z"/><path class="cls-6" d="M15.76,15.38,28.44,7.3a.35.35,0,0,0,0-.58L19,.12a.35.35,0,0,0-.54.22L15.23,15A.35.35,0,0,0,15.76,15.38Z"/><path class="cls-7" d="M15.64,15.66l14.68,3.25a.34.34,0,0,0,.41-.4l-2-11.33a.35.35,0,0,0-.53-.24L15.53,15A.35.35,0,0,0,15.64,15.66Z"/><path class="cls-8" d="M15.36,15.76l8.08,12.68a.35.35,0,0,0,.58,0L30.62,19a.35.35,0,0,0-.21-.54L15.73,15.23A.35.35,0,0,0,15.36,15.76Z"/><path class="cls-9" d="M15.2,15.47,9.45,29.36a.35.35,0,0,0,.32.48H21.28a.34.34,0,0,0,.32-.48L15.85,15.47A.35.35,0,0,0,15.2,15.47Z"/><path class="cls-9" d="M15.14,15.2,1.25,21a.35.35,0,0,0-.11.57l8.13,8.13a.35.35,0,0,0,.57-.11L15.6,15.65A.35.35,0,0,0,15.14,15.2Z"/><path class="cls-9" d="M15.32,14.93,1.43,9.17a.36.36,0,0,0-.49.33V21a.35.35,0,0,0,.49.32l13.89-5.75A.35.35,0,0,0,15.32,14.93Z"/><path class="cls-9" d="M15.61,14.87,9.86,1A.35.35,0,0,0,9.29.87L1.15,9a.35.35,0,0,0,.12.57l13.88,5.76A.35.35,0,0,0,15.61,14.87Z"/><path class="cls-9" d="M15.86,15,21.61,1.15a.34.34,0,0,0-.32-.48H9.78a.34.34,0,0,0-.32.48L15.21,15A.35.35,0,0,0,15.86,15Z"/><path class="cls-9" d="M15.91,15.33,29.8,9.58A.35.35,0,0,0,29.92,9L21.78.87a.35.35,0,0,0-.57.12L15.46,14.88A.34.34,0,0,0,15.91,15.33Z"/><path class="cls-9" d="M15.75,15.58l13.88,5.75a.35.35,0,0,0,.49-.32V9.5a.36.36,0,0,0-.49-.32L15.75,14.93A.35.35,0,0,0,15.75,15.58Z"/><path class="cls-9" d="M15.45,15.64,21.2,29.52a.35.35,0,0,0,.57.12l8.14-8.14a.35.35,0,0,0-.11-.57L15.91,15.18A.35.35,0,0,0,15.45,15.64Z"/><path class="cls-9" d="M15.06,15.5,10.54,29.83a.36.36,0,0,0,.37.46l11.46-1a.35.35,0,0,0,.28-.51L15.71,15.44A.35.35,0,0,0,15.06,15.5Z"/><path class="cls-9" d="M15,15.23,1.64,22.17a.35.35,0,0,0-.06.58l8.81,7.39A.35.35,0,0,0,11,30l4.52-14.33A.35.35,0,0,0,15,15.23Z"/><path class="cls-9" d="M15.13,15,.79,10.43a.34.34,0,0,0-.45.36l1,11.46a.35.35,0,0,0,.51.28l13.33-6.94A.35.35,0,0,0,15.13,15Z"/><path class="cls-9" d="M15.42,14.86,8.47,1.53a.34.34,0,0,0-.57-.06L.5,10.28a.36.36,0,0,0,.16.56L15,15.36A.36.36,0,0,0,15.42,14.86Z"/><path class="cls-9" d="M15.68,15,20.2.67a.35.35,0,0,0-.37-.45l-11.46,1a.35.35,0,0,0-.28.51L15,15.07A.36.36,0,0,0,15.68,15Z"/><path class="cls-9" d="M15.76,15.3,29.09,8.36a.35.35,0,0,0,.07-.58L20.34.38a.34.34,0,0,0-.55.17L15.26,14.88A.36.36,0,0,0,15.76,15.3Z"/><path class="cls-9" d="M15.61,15.56,30,20.08a.34.34,0,0,0,.45-.36l-1-11.46A.35.35,0,0,0,28.89,8L15.56,14.92A.35.35,0,0,0,15.61,15.56Z"/><path class="cls-9" d="M15.32,15.64l7,13.34a.34.34,0,0,0,.57.06l7.4-8.81a.35.35,0,0,0-.16-.56L15.74,15.15A.35.35,0,0,0,15.32,15.64Z"/><path class="cls-9" d="M15.09,15.64,11.83,30.32a.35.35,0,0,0,.4.42l11.33-2a.35.35,0,0,0,.24-.53L15.72,15.53A.35.35,0,0,0,15.09,15.64Z"/><path class="cls-9" d="M15,15.39,2.3,23.46a.36.36,0,0,0,0,.59l9.43,6.59a.34.34,0,0,0,.54-.21L15.5,15.76A.34.34,0,0,0,15,15.39Z"/><path class="cls-9" d="M15.1,15.09.43,11.84a.34.34,0,0,0-.42.4L2,23.57a.36.36,0,0,0,.54.23l12.67-8.07A.35.35,0,0,0,15.1,15.09Z"/><path class="cls-9" d="M15.38,15,7.3,2.31a.35.35,0,0,0-.58,0L.12,11.72a.35.35,0,0,0,.22.54L15,15.51A.35.35,0,0,0,15.38,15Z"/><path class="cls-9" d="M15.66,15.11,18.91.43a.35.35,0,0,0-.4-.42L7.18,2a.35.35,0,0,0-.24.53L15,15.22A.35.35,0,0,0,15.66,15.11Z"/><path class="cls-9" d="M15.76,15.39,28.44,7.31a.35.35,0,0,0,0-.58L19,.13a.35.35,0,0,0-.54.21L15.23,15A.35.35,0,0,0,15.76,15.39Z"/><path class="cls-9" d="M15.64,15.66l14.68,3.25a.34.34,0,0,0,.41-.4l-2-11.33A.35.35,0,0,0,28.21,7L15.53,15A.35.35,0,0,0,15.64,15.66Z"/><path class="cls-9" d="M15.36,15.77l8.08,12.68a.35.35,0,0,0,.58,0L30.62,19a.35.35,0,0,0-.21-.54L15.73,15.24A.35.35,0,0,0,15.36,15.77Z"/><g id="Ear"><path class="cls-10" d="M25.2,15.21l1.14-.73.89-.75a2.67,2.67,0,0,0,.64-.78l.44-.81a2.68,2.68,0,0,0,.24-.67l.09-.52a3.8,3.8,0,0,0,0-1.26V9.6a2.31,2.31,0,0,0-.32-1,.79.79,0,0,0-.12-.15l-.06-.07a.73.73,0,0,0-.29-.26L27.77,8a3.09,3.09,0,0,0-1.14-.39l-.15,0a1.88,1.88,0,0,0-.53,0l-.13,0a2.84,2.84,0,0,0-1,.37l-.17.11a6.22,6.22,0,0,0-.93.69l-.16.13a8,8,0,0,0-.76.78l-.61.86"/><path class="cls-11" d="M23.08,12l1.44-1.49.36-.45a1.59,1.59,0,0,1,.95-.57h0l.22,0a.92.92,0,0,1,.69.29h0a1,1,0,0,1,.25.67,1.23,1.23,0,0,0,0,.26h0a.75.75,0,0,1,0,.15h0a2.56,2.56,0,0,1-.37,1.2l0,0-.16.23-.48.61a3.26,3.26,0,0,1-.31.33l-.4.37-.71.62"/><path class="cls-10" d="M2.1,10.32c.2-1.64,1.14-2.89,1.82-2.95"/><path class="cls-10" d="M3.92,7.37H4a2,2,0,0,1,.54,0h0a3.84,3.84,0,0,1,1.29.38h0a7.13,7.13,0,0,1,1,.84l.12.1a7.73,7.73,0,0,1,1.3,1.63L5.31,15.23,3.52,13.71A4.37,4.37,0,0,1,2.1,10.32"/><path class="cls-11" d="M3.84,9.18c-1.09,1,.58,3.72,1.92,5l1.61-2.57c-.08-.21-.31-.32-.46-.49h0L6.06,9.92l-.35-.44a1.6,1.6,0,0,0-1-.57h0l-.22,0a1,1,0,0,0-.7.3h0"/></g><g id="Face"><path class="cls-10" d="M27.11,18.65c-.17-.38-.63-1.32-.83-1.68s-.62-1.3-.83-1.74-.94-1.49-1.27-2c-.55-.84-1.26-2-1.7-2.62-.22-.32-.57-1.08-.83-1.37A11.22,11.22,0,0,0,20.1,8a8.46,8.46,0,0,0-1.45-.73A7.54,7.54,0,0,0,17,6.81a11.82,11.82,0,0,0-1.32-.14c-.35,0-1.42.09-1.42.09h0a12.45,12.45,0,0,0-1.71.39l-.25.08a10.11,10.11,0,0,0-1.13.42h0a6.69,6.69,0,0,0-1.33.75h0a3.58,3.58,0,0,0-.81.79h0l-.38.48h0a8,8,0,0,0-.72,1H8l-.58.91-.64.9-.29.42a9.66,9.66,0,0,0-.64,1.13h0c-.11.23-.22.47-.31.71l-.31.77h0A11.69,11.69,0,0,0,4.54,17a1.88,1.88,0,0,0,0,.2l0,.23a1.76,1.76,0,0,1-.21.66,15.67,15.67,0,0,0-.65,1.7L3.5,20l-.08.12a2.09,2.09,0,0,0-.26.57L3.08,21a.08.08,0,0,0,0,.08h0a.14.14,0,0,0,.24,0l0-.1a.75.75,0,0,1,.25-.33l.08-.06h0a.17.17,0,0,1,.28.1l.07.38v.16a2.65,2.65,0,0,1-.08.63l-.07.27v0a.38.38,0,0,0,.16.45h.24a.19.19,0,0,1,.18.16h0v.11a3.18,3.18,0,0,1-.06.43l0,.27s-.23.35.42.26.71-.32.71-.32v0s.07-.23,0,.16a1.7,1.7,0,0,1-.11.34,1,1,0,0,0-.09.55v0a.2.2,0,0,0,.2.17h0l.15.25h0a.43.43,0,0,0,.42.31h0l.37-.22s.06.54.25.64.1.08.2.14.27.15.37,0h0l.54.48.87.55.68.61,2.42,1.23,1.19.44a4,4,0,0,0,.59.16h0a6.64,6.64,0,0,0,1.18.11h2.45a2.93,2.93,0,0,0,.93-.16h0l.26-.07a5.6,5.6,0,0,0,1.35-.54l.93-.52,1.49-1,1.41-1,.66-.48.37-.44a.32.32,0,0,1,.17-.1h0a1.74,1.74,0,0,1,.51,0h0a.09.09,0,0,0,.06,0l.17-.2a1.78,1.78,0,0,1,.35-.32h0l-.19-.42-.16-.58s-.14-.09.16-.09.54.35.54.35a.27.27,0,0,0,.49,0,2.06,2.06,0,0,0,0-1.19h.12a.46.46,0,0,0,.46-.41h0l-.13-1.37c0-.2.06-.42.42-.13v0A.27.27,0,0,0,28,20.6h0Z"/></g><path class="cls-12" d="M17.14,28.61l1-3.57c2.36.35,4.84-.42,5.27-3,.22-1.27-1.11-2.59-3.69-2.37-.13,1.81-2,2.51-4.12,2.68s-4.37-.76-4.25-2.39C10,18.86,7.6,20.4,7.56,22.06s2.2,3.27,5.45,3l.91,3.64Z"/><path class="cls-12" d="M19.71,19.69c0,3.4-8.89,3.77-8.37,0,.23-1.66,2.9-2.8,4.2-2.8S19.71,18.13,19.71,19.69Z"/><path class="cls-13" d="M15.58,23.92l.59.54a4.1,4.1,0,0,0,1.42.47l.54.11-1,3.62H15.58V23.92Z"/><path class="cls-13" d="M15.54,23.92l-.47.49a3.48,3.48,0,0,1-1.49.51L13,25l1,3.62h1.54V23.92Z"/><g id="Eye"><path class="cls-13" d="M13.88,15.1c.12,1,.45.48-1.79,1.3-2.66,1-1.91,2.62-2.35-.86-.24-1.86.57-3.47,1.71-3.6S13.66,13.24,13.88,15.1Z"/><path class="cls-14" d="M13.88,15.84c-1.69.17-4.07,1.7-4.32,2.4"/><path class="cls-13" d="M17.58,15.63c.2,1-.49.52,1.83,1.1s1.9,1,2.19-1.22c.19-1.45-.72-3.42-1.87-3.55S17.13,13.38,17.58,15.63Z"/><path class="cls-13" d="M17.7,16.28c1.62.38,2.77.77,3.64,1"/><ellipse class="cls-15" cx="19.46" cy="14.3" rx="1.52" ry="0.87" transform="translate(3.77 32.66) rotate(-85.8)"/><ellipse class="cls-15" cx="11.79" cy="14.62" rx="0.86" ry="1.53" transform="translate(-1.72 1.58) rotate(-7.13)"/></g><g id="Eyebrow"><path class="cls-16" d="M19.05,10.39c-.34.62,0,.75.42.77h.37a6.82,6.82,0,0,1,1.53.14,1.42,1.42,0,0,0-.2-.77c-.15-.3-.18-.51-1-.57s-.93,0-1.09.42Z"/><path class="cls-16" d="M10.72,11.09c.1,0,.19-.1.31-.11l.4-.06A10.74,10.74,0,0,1,13,11a.28.28,0,0,0,.23-.11.58.58,0,0,0,.08-.5c-.1-.41-.82-.57-1.58-.37s-1.42.67-1.16,1C10.65,11.05,10.64,11.1,10.72,11.09Z"/></g><g id="Mustach"><path class="cls-14" d="M10.11,20.7,7,20.66a9,9,0,0,0-4.14.94l-.68.34"/><path class="cls-14" d="M9.05,22l-1.93.31a14,14,0,0,0-5,2.57"/><path class="cls-14" d="M9.48,23.06l-1.74.57-.13.05A13.31,13.31,0,0,0,5.09,25L3.51,26.13"/><path class="cls-14" d="M20.88,20.83l3.58-.25a4.85,4.85,0,0,1,.66,0h.14a5.43,5.43,0,0,1,2.3.64L29,22"/><path class="cls-14" d="M22,22l1.35.2a8.85,8.85,0,0,1,3.15,1.11l1.32.77"/><path class="cls-14" d="M21.46,22.87,23.32,24a10,10,0,0,1,1.47,1l1.59,1.35"/></g><line class="cls-14" x1="15.58" y1="22.42" x2="15.58" y2="28.64"/><path class="cls-14" d="M13,25a3.51,3.51,0,0,0,2.57-1.15"/><path class="cls-14" d="M18.18,25c-1-.19-1.84-.19-2.6-1.15"/></g></g></svg>