<svg width="126" height="148" viewBox="0 0 126 148" fill="none" xmlns="http://www.w3.org/2000/svg">
<path d="M64.0153 147.974C84.4676 147.974 101.048 133.365 101.048 115.345C101.048 97.3243 84.4676 82.7157 64.0153 82.7157C43.563 82.7157 26.9831 97.3243 26.9831 115.345C26.9831 133.365 43.563 147.974 64.0153 147.974Z" fill="#323A53"/>
<path d="M64.0153 147.974C43.5634 147.974 26.9842 133.366 26.9842 115.346C26.9842 97.3243 43.5638 82.7149 64.0153 82.7149V147.974Z" fill="#EFF1F4"/>
<path d="M107.365 19.1956C112.742 21.534 118.129 23.8488 123.487 26.2273C124.749 26.7869 125.683 27.7265 125.668 29.2703C125.401 29.7733 125.107 30.2425 124.44 30.238C123.75 30.1177 123.181 30.3958 122.646 30.7856C122.221 31.0281 121.818 31.3666 121.275 31.1215C120.595 29.8647 120.608 29.8876 119.319 30.6072C118.366 31.138 117.519 31.9089 116.355 32.0007C114.284 31.485 112.206 30.9895 110.182 30.2935C108.973 29.8775 108.795 29.5649 109.56 28.5994C110.186 27.8108 109.845 27.4986 109.171 27.1665C108.405 26.7891 107.658 26.3697 106.842 26.1021C97.9077 22.0153 88.9805 17.9123 80.0259 13.8715C79.6343 13.695 79.2682 13.4004 78.8635 13.3326C78.215 13.2228 77.6817 11.8821 76.8925 13.1092C75.0692 12.7123 73.4729 11.755 71.8106 10.9811C69.011 9.68013 66.133 8.54447 63.44 7.02353C62.9944 6.51604 62.4681 6.54977 61.9111 6.80539C60.3118 7.60372 58.6341 8.22814 57.0659 9.08719C55.5284 9.52721 54.2625 10.6606 52.6193 10.8323C52.3219 10.794 52.0218 10.7764 51.7221 10.7506C50.1404 10.6213 49.6735 9.65839 50.4855 8.27911C51.6715 6.26492 53.5672 5.07867 55.5281 3.99812C57.4083 2.96179 59.3317 2.00679 61.314 1.17098C62.4224 0.702854 63.4812 0.739585 64.5588 1.19947C72.8079 4.73198 80.9966 8.40692 89.2536 11.9241C95.0549 14.394 100.81 16.9865 106.745 19.1334C106.945 19.2076 107.147 19.2912 107.365 19.1956V19.1956Z" fill="#D2E2ED"/>
<path d="M0.756158 38.7891C0.11965 37.601 0.570869 36.2855 0.324818 35.0265C-0.0146275 33.2822 0.0183793 31.4561 0.000750633 29.6631C-0.0146276 28.0724 0.735154 26.8487 2.21971 26.1984C7.43367 23.9117 12.6638 21.6618 17.8803 19.3815C23.0155 17.1364 28.1421 14.8696 33.2724 12.6137C37.5827 10.7164 41.8951 8.82404 46.2096 6.93656C46.4362 6.83761 46.7092 6.84435 46.9605 6.802C46.7512 8.03135 45.6144 8.26711 44.7656 8.71649C41.9982 10.185 39.1912 11.5796 36.389 12.981C35.7089 13.3213 34.6561 13.6781 34.6853 14.3674C34.7154 15.1459 35.8912 15.0893 36.5502 15.4281C37.3529 15.8411 38.2013 15.7508 39.0715 15.6215C39.6866 15.5293 40.448 15.1871 40.8167 16.1027C40.5673 16.4858 40.1506 16.6312 39.7718 16.8197C33.4108 19.9861 26.874 22.7727 20.4268 25.7531C18.9504 26.4345 17.5038 27.1804 15.9532 27.6931C14.8587 28.7621 13.5988 28.6605 12.1803 28.4716C9.55399 28.1219 6.89131 28.307 4.24476 28.3786C3.26993 28.4056 2.53928 28.8835 2.17358 29.8291C1.17662 30.7275 1.33828 31.886 1.47031 33.0281C1.66422 34.7075 1.74486 36.3942 1.76137 38.0856C1.58133 38.5399 1.26139 38.7978 0.756158 38.7891V38.7891Z" fill="#EBF0F5"/>
<path d="M40.7665 16.0687C40.3228 15.6616 39.7361 15.7261 39.3033 15.8891C37.4024 16.602 35.9141 15.4289 34.2877 14.897C33.7383 14.7175 33.8099 14.3547 34.191 14.0421C34.6197 13.6909 35.0402 13.3026 35.5274 13.053C38.4972 11.5332 41.493 10.0606 44.4655 8.54488C45.3721 8.08237 46.2801 7.59925 46.9613 6.80429C48.4642 5.7912 50.1948 5.25823 51.8268 4.52062C54.9118 3.12973 58.0673 1.894 61.128 0.455138C62.4261 -0.155415 63.5206 -0.0827037 64.7737 0.474628C72.0936 3.73179 79.4243 6.96473 86.7657 10.1734C93.202 12.9897 99.6549 15.7651 106.098 18.563C106.531 18.7519 106.944 18.9835 107.366 19.1964C106.916 19.711 106.476 19.2515 106.072 19.1364C102.594 18.1473 99.4017 16.4472 96.0627 15.1103C86.6712 11.3548 77.5061 7.07827 68.2083 3.10949C66.9859 2.58814 65.7546 2.0904 64.5498 1.53232C63.3222 0.962246 62.1666 1.07356 60.9704 1.65151C58.0366 3.06976 55.0506 4.39431 52.4532 6.40663C51.5912 7.07303 51.038 8.01603 50.4795 8.91968C50.0714 9.58008 50.6142 10.3451 51.4176 10.4189C51.8309 10.456 52.2866 10.2791 52.6403 10.6426C52.5184 11.1824 52.0454 11.3409 51.6265 11.5272C48.4725 12.9308 45.3477 14.3948 42.2169 15.8494C41.7664 16.0567 41.3021 16.3486 40.7665 16.0687V16.0687Z" fill="#E1EAF1"/>
<path d="M5.40266 96.5668C4.9807 95.3075 5.07297 93.9781 4.87868 92.6858C4.54486 88.5165 4.20391 84.3468 3.88209 80.176C3.68405 77.6206 3.53927 75.0603 3.33223 72.5053C3.01866 68.6351 2.60983 64.7709 2.36228 60.8969C2.20662 58.4659 1.9902 56.041 1.80154 53.6141C1.48797 49.5726 1.2468 45.5247 0.798953 41.4937C0.699933 40.6006 0.766697 39.6898 0.757695 38.7884C1.009 38.6134 1.25917 38.4369 1.51048 38.2626C2.02396 38.559 2.12373 39.0688 2.15486 39.5886C2.43279 44.2485 2.86526 48.8961 3.23358 53.547C3.62067 58.4123 4.0325 63.2758 4.40945 68.1411C4.69901 71.8962 5.07972 75.645 5.26313 79.4084C5.64871 83.8502 5.96303 88.2991 6.32985 92.7446C6.42212 93.863 7.28368 94.4245 7.8583 95.1999C8.08409 95.7644 8.45767 96.2865 8.36953 96.9439C7.98582 97.4169 7.72289 96.9656 7.41908 96.8228C7.06538 96.544 6.6813 96.3045 6.35648 95.9897C6.24021 95.8907 6.12806 95.7884 5.99266 95.7228C5.51181 95.8116 5.76836 96.4083 5.40266 96.5668V96.5668Z" fill="#DBE0E8"/>
<path d="M124.961 40.327C124.785 42.7366 124.61 45.147 124.434 47.5581C125.089 48.6634 124.351 49.802 124.519 50.9189C124.296 52.2735 124.301 53.6482 124.164 55.0103C123.912 56.941 123.764 58.8839 123.721 60.8306C123.65 61.3628 123.532 61.8785 123.206 62.3234C122.825 62.6199 122.439 62.8661 121.975 62.4688C121.737 60.8819 122.065 59.3205 122.187 57.7474C122.34 53.7862 122.787 49.8462 123.087 45.8958C123.168 44.8314 123.257 43.7726 123.25 42.7055C123.538 39.4796 123.856 36.2529 124.041 33.0176C124.055 32.7605 124.109 32.5097 124.224 32.28C125.004 31.6859 124.963 32.7938 125.422 32.8636C125.522 35.3676 125.069 37.8364 124.961 40.327V40.327Z" fill="#8D9EBD"/>
<path d="M125.422 32.8643C124.397 33.353 124.77 32.47 124.647 32.0742C124.188 31.4314 124.181 30.7369 124.409 30.015C124.991 30.0398 125.203 29.4405 125.668 29.2714C125.595 30.4689 125.949 31.6971 125.422 32.8643Z" fill="#B5C2D4"/>
<path d="M56.9766 8.82709L61.904 6.52355C62.4779 6.36951 63.0011 6.53404 63.5112 6.78141L76.9165 12.9383C78.8744 13.0721 80.4332 14.2527 82.1342 15.017C90.117 18.6109 98.0518 22.3166 106.042 25.8982C106.536 26.1658 107.035 26.4289 107.549 26.6602C107.822 26.7843 108.093 26.9079 108.363 27.0357C108.886 27.282 109.669 27.345 109.684 28.0616C109.695 28.6729 108.995 28.8633 108.528 29.1369C105.88 30.6927 103.202 32.1987 100.563 33.7687C100.015 34.0082 99.5063 34.3185 99.0075 34.6446C98.8537 34.7432 98.6943 34.832 98.533 34.9178C91.4226 39.0283 84.2984 43.1152 77.2087 47.2608C73.0243 49.6213 68.8703 52.0384 64.7235 54.4649C63.4339 55.2205 62.2945 55.2321 60.9892 54.4893C56.366 51.8578 51.8339 49.0685 47.1436 46.5573C44.099 44.8231 40.9619 43.2497 38.043 41.2981C34.9494 39.3559 31.7398 37.613 28.5862 35.7754C24.652 33.4823 20.7005 31.2185 16.7547 28.945C16.3541 28.7141 15.8778 28.5248 15.9202 27.9222C16.2015 27.4975 16.6733 27.3802 17.1002 27.1883C21.8655 25.0474 26.6017 22.8432 31.3565 20.6791C38.0239 17.6432 44.6838 14.593 51.3486 11.5519C53.2416 10.6876 55.2261 9.9916 56.9766 8.82709Z" fill="black"/>
<path d="M38.2175 41.0308L47.2197 46.3043C48.2726 47.5168 48.9627 48.9583 49.7301 50.3447C50.8467 52.3634 52.3519 53.8929 54.4966 54.8547C56.8075 55.8921 59.0748 57.0162 61.4232 57.9835C62.9392 58.6072 64.4339 58.6691 65.9642 58.515C67.3704 58.3726 68.7957 58.1383 70.1216 57.6436C74.0164 56.1931 77.9506 54.8783 81.5848 52.7502C86.8475 49.6689 92.1361 46.6289 97.347 43.4596C97.7866 43.192 98.2585 42.9697 98.548 42.5136C99.9283 41.2115 101.68 40.4814 103.259 39.4848C104.049 38.9855 104.873 38.5362 105.678 38.0568C108.897 36.1228 112.128 34.2072 115.344 32.2672C115.673 32.0693 116.003 31.8647 116.401 31.8317C117.51 31.2346 118.612 30.6181 119.734 30.0413C120.977 29.4 121.186 29.5405 121.297 31.0259C120.958 31.958 120.078 32.3043 119.336 32.7691C114.804 35.6108 110.158 38.2689 105.629 41.1171C92.279 49.0048 79.071 57.1275 65.791 65.131C64.7426 65.7637 64.2891 66.5122 64.3143 67.7284C64.372 70.5173 64.3248 73.3096 64.3409 76.1015C64.3461 76.479 64.287 76.8547 64.1661 77.2124C63.7775 78.6651 63.5011 80.1276 63.7498 81.6362C63.8132 82.0207 63.8267 82.4057 63.8436 82.791C64.2205 91.031 64.0919 99.2778 64.1031 107.523C64.1117 112.466 64.1024 117.407 64.1084 122.348C64.0997 124.941 64.1024 127.535 64.1084 130.126C64.1095 130.637 64.1586 131.15 63.8619 131.61C63.0821 132.191 62.4003 132.007 61.7776 131.345C61.5417 130.915 61.5196 130.443 61.5196 129.971C61.5211 122.643 61.4727 115.315 61.538 107.989C61.9693 103.179 62.2956 98.3719 61.8785 93.5358C61.6944 91.4039 61.829 89.2526 61.832 87.1113C61.8339 85.7785 61.5923 84.4772 61.3853 83.1714C61.14 80.0103 61.32 76.8447 61.2746 73.6814C61.2484 71.7999 61.2709 69.9173 61.269 68.0339C61.2683 67.3011 61.2398 66.5759 60.8234 65.9361C60.4412 65.01 59.6341 64.6284 58.7582 64.3353C56.2707 63.3046 54.1868 61.567 51.7908 60.3748C45.9415 56.7362 40.0197 53.219 34.1366 49.6359C28.731 46.3624 23.3456 43.0533 17.9074 39.833C14.945 37.944 11.9121 36.1708 8.91449 34.3399C8.15946 33.8706 7.38867 33.4295 6.64077 32.9505C6.25856 32.7054 5.78859 32.5225 5.76346 31.9558C6.29269 30.7575 6.63364 30.6143 7.94566 31.193C10.6579 32.3886 13.2028 33.9044 15.7612 35.3889C16.8853 36.0411 18.0293 36.6033 19.3567 36.6741C19.5273 36.6839 19.7164 36.6918 19.8578 36.7761C21.995 38.0737 24.4604 38.568 26.7104 39.5886C27.2569 39.8367 27.7644 40.2123 28.381 40.2044C31.0448 40.1797 33.6464 40.9829 36.3211 40.7576C36.9793 40.7044 37.5847 40.954 38.2175 41.0308V41.0308Z" fill="#FDFDFE"/>
<path d="M105.556 40.8498C109.416 38.4814 113.263 36.0913 117.143 33.7541C118.563 32.899 119.948 31.9888 121.296 31.0255C121.83 31.1428 122.116 30.5817 122.595 30.5521C122.967 31.2002 122.634 31.7582 122.236 32.1724C120.819 33.6446 120.353 35.5827 119.594 37.3732C119.245 38.1951 118.976 39.0583 118.734 39.9181C118.3 41.457 117.112 42.3655 116.006 43.3546C115.763 43.7246 115.4 43.9558 115.035 44.1822C104.61 50.6753 94.1862 57.1717 83.7628 63.6671C83.4346 63.8713 83.1225 64.1041 82.7384 64.1974C82.0123 64.0718 81.4969 64.9995 80.7164 64.6037C80.4775 64.0816 80.8098 63.7529 81.1706 63.534C83.2564 62.2698 84.6742 60.4085 85.8906 58.3625C87.9393 54.9162 91.2295 52.8341 94.4476 50.7169C97.0334 49.0157 99.5194 47.1656 101.925 45.2511C103.365 44.1046 104.922 42.7853 105.556 40.8498V40.8498Z" fill="#516494"/>
<path d="M116.401 31.8314C114.983 33.081 113.251 33.8411 111.664 34.8234C109.74 36.0153 107.767 37.1269 105.814 38.2731C102.284 39.441 98.6358 39.1408 95.0121 39.122C94.5283 39.1194 94.0141 38.9822 93.8948 38.438C93.7695 37.8676 94.1607 37.4624 94.5906 37.1596C95.8778 36.2473 97.3526 35.6229 98.5679 34.5974L98.8511 34.4276C99.5138 34.407 99.938 33.9722 100.372 33.5532C103.439 31.7392 106.507 29.9262 109.599 28.1002C108.973 27.4087 107.996 27.4593 107.379 26.8656C107.327 26.4979 106.91 26.3892 106.805 26.0594C106.819 26.0043 106.837 25.9485 106.853 25.8937C108.058 25.9848 108.988 26.737 110.012 27.243C110.768 27.619 110.388 28.1122 109.978 28.5788C109.052 29.6376 109.109 29.5616 110.442 30.0447C112.399 30.7512 114.495 30.9779 116.401 31.8314V31.8314Z" fill="#DAE7F0"/>
<path d="M115.896 43.1849C115.597 42.7254 116.06 42.7006 116.271 42.6002C117.398 42.0586 117.977 41.0721 118.364 39.9747C119.027 38.0891 119.635 36.1907 120.469 34.3631C120.847 33.5378 121.171 32.7429 121.877 32.1481C122.368 31.7358 122.441 31.123 122.596 30.5522C123.126 30.1208 123.615 29.5563 124.409 30.0147C124.822 30.6627 124.621 31.382 124.647 32.0742C124.078 33.3133 124.382 34.6607 124.224 35.9512C123.951 38.1711 123.871 40.4244 123.623 42.6579C122.181 46.4044 121.013 50.2611 119.177 53.8536C118.826 54.5399 118.468 55.2239 117.954 55.806C117.703 56.0904 117.426 56.4401 116.993 56.3067C116.609 56.1875 116.623 55.7692 116.577 55.4387C116.535 55.1403 116.421 54.8607 116.374 54.5639C116.499 51.7082 116.73 48.8575 116.953 46.009C117.023 45.1102 117.133 44.2276 116.974 43.3397C116.66 42.9799 116.229 43.4064 115.896 43.1849V43.1849Z" fill="#5A6E9E"/>
<path d="M106.004 26.1928C101.517 24.1737 97.0226 22.1715 92.5464 20.1311C87.3279 17.7507 82.126 15.337 76.9165 12.9372C77.1532 12.2974 77.454 12.2307 78.1216 12.5387C87.2113 16.7377 96.3223 20.8901 105.422 25.0643C105.923 25.2929 106.471 25.4541 106.854 25.8918L106.85 25.8997C106.622 26.1516 106.358 26.3007 106.004 26.1928V26.1928Z" fill="#ECEEEF"/>
<path d="M56.9766 8.82709C56.513 9.77646 55.4857 9.88141 54.686 10.2588C51.0856 11.9586 47.4414 13.562 43.8189 15.213C35.9104 18.8174 28.0041 22.4267 20.1001 26.041C18.737 26.6636 17.3875 27.3157 16.0312 27.9544C15.8542 27.7992 15.8564 27.6287 15.9903 27.4488C23.1168 24.1895 30.2444 20.9313 37.3694 17.6687C38.5078 17.1473 39.6338 16.6027 40.7665 16.0679C44.7247 14.2591 48.6822 12.4496 52.6403 10.6411C54.0859 10.0369 55.5315 9.43202 56.9766 8.82709V8.82709Z" fill="#2D2E31"/>
<path d="M63.5108 6.78068C62.9403 6.90886 62.4355 6.63114 61.9033 6.52282C62.5019 6.21923 63.0937 5.95874 63.5108 6.78068Z" fill="#868887"/>
<path d="M5.90782 32.1005C6.94641 32.7777 7.985 33.455 9.02397 34.1311C9.39717 34.5037 9.67248 34.9355 9.75424 35.4602C10.0866 37.5827 10.8307 39.5995 11.3622 41.6699C11.5981 42.5874 11.5029 43.1882 10.4556 43.3442C9.74374 43.6016 9.21938 42.6526 8.48798 43.0417C8.19317 44.5417 8.56787 46.0274 8.6804 47.4932C8.8038 49.1034 8.89794 50.7289 9.02884 52.3394C9.33678 56.1216 9.5397 59.9131 9.87389 63.6952C9.90052 63.9928 9.87014 64.2945 9.80675 64.5902C9.51269 65.6408 9.59146 66.7161 9.68936 67.7727C10.0967 72.1372 10.2929 76.5176 10.6597 80.884C10.7062 81.4331 10.7058 81.9949 10.5918 82.5425C10.0914 83.5706 9.35216 83.4473 8.59525 82.8986C7.2386 81.9173 5.95958 80.845 4.89286 79.5426C4.55679 75.5524 4.21022 71.563 3.88652 67.5721C3.68661 65.1078 3.53545 62.6397 3.33628 60.1739C3.01297 56.183 2.65252 52.1944 2.33595 48.2023C2.12827 45.5657 1.95072 42.9268 1.80334 40.2861C1.76433 39.5961 1.73583 38.9192 1.50928 38.2645C1.34274 35.9118 1.17396 33.5599 1.01005 31.2081C0.957538 30.4412 1.18334 29.8644 2.05164 29.7497C3.5557 30.174 4.82122 30.991 5.90782 32.1005V32.1005Z" fill="#C0BFCC"/>
<path d="M5.90783 32.1005C4.62206 31.3171 3.33704 30.5338 2.0509 29.7508C1.91287 28.1328 3.2504 28.0151 4.19672 28.0095C7.43327 27.99 10.6938 27.6351 13.9015 28.3536C14.4078 28.4671 14.6854 28.3633 14.972 27.9495C15.1929 27.6291 15.3392 26.9664 15.9903 27.4492C16.0042 27.6178 16.0181 27.7865 16.0312 27.9548C16.2465 28.4289 16.736 28.5421 17.1305 28.7719C23.8013 32.6312 30.4769 36.4834 37.1473 40.342C37.5149 40.553 37.8615 40.8008 38.2178 41.0309C36.4591 41.2029 34.6977 41.1377 32.9401 41.0301C32.2642 40.99 31.5725 40.655 30.9259 40.7412C28.0329 41.1227 25.7802 39.0819 23.0826 38.7686C22.6472 38.7172 22.3122 38.4215 21.9439 38.2008C20.8851 37.5647 19.8356 37.0366 18.5134 36.9178C16.7315 36.7596 15.3204 35.5217 13.8021 34.6544C11.8278 33.5278 9.81855 32.4637 7.77722 31.4637C6.91754 31.0405 6.22702 30.9937 5.90783 32.1005V32.1005Z" fill="#FDFDFD"/>
<path d="M4.89137 79.5422C6.2439 80.1254 6.99855 81.4413 8.1943 82.2258C8.85294 82.6579 9.39605 83.3142 10.3071 82.8974C11.0531 83.0245 10.9376 83.6631 10.8769 84.0915C10.5149 86.6008 11.5081 88.326 13.6847 89.5681C14.6348 90.1097 15.4667 90.8946 16.3072 91.6217C20.2718 94.6902 24.3669 97.5833 28.3596 100.616C28.8318 100.975 29.3832 101.263 29.624 101.862C29.7227 103.552 28.9789 104.281 27.3518 104.053C26.545 103.938 25.7667 103.669 24.9689 103.507C23.3291 103.17 21.6937 102.856 20.0059 102.82C18.4906 102.787 17.0641 102.396 15.7608 101.522C12.9822 99.6578 10.1597 97.8606 7.72808 95.5384C5.64827 94.3694 5.90108 92.2337 5.70041 90.365C5.40372 87.6143 5.30058 84.843 5.15017 82.0785C5.10441 81.2262 4.73158 80.4121 4.89137 79.5422V79.5422Z" fill="#CFCACE"/>
<path d="M7.72882 95.538C9.50407 96.4053 10.8738 97.8491 12.5133 98.9116C13.9802 99.8614 15.4404 100.825 16.8961 101.792C17.7595 102.366 18.7966 102.439 19.7313 102.452C22.2395 102.489 24.6332 103.068 27.0382 103.645C28.7786 104.062 29.3795 103.584 29.402 101.741C30.9266 102.177 32.1524 103.144 33.3767 104.078C34.6463 105.049 35.8942 106.03 37.3262 106.767C38.1548 107.195 38.6923 108.005 39.3794 108.621C40.3381 109.48 41.3733 110.193 42.464 110.878C43.6362 111.614 45.1031 112.129 45.5487 113.698C45.743 115.242 45.0843 115.894 43.4786 115.68C41.7612 115.451 40.1232 114.849 38.6019 114.093C34.7082 112.158 30.6491 110.757 26.4197 109.814C25.3609 109.426 24.4993 108.718 23.6318 108.034C21.9882 106.74 20.1597 105.727 18.4486 104.537C18.2186 104.378 17.9737 104.37 17.7149 104.404C16.2633 103.923 15.3568 102.646 14.0721 101.919C13.1652 101.174 12.1952 100.515 11.2358 99.8411C10.4459 99.0799 9.48381 98.5293 8.67139 97.7943C8.47222 97.5796 8.25731 97.3727 8.23968 97.0519C8.06827 96.5481 7.89836 96.0421 7.72882 95.538V95.538Z" fill="#DBD5D6"/>
<path d="M122.083 62.5209C122.421 62.4339 122.758 62.3474 123.095 62.2615C123.69 62.9212 123.51 63.7135 123.422 64.4605C123.327 65.2686 123.247 66.0748 123.236 66.8881C122.965 69.2797 122.808 71.6818 122.625 74.0817C122.247 76.579 122.307 79.1153 121.955 81.6148C122.005 83.2186 121.632 84.7947 121.66 86.3969C121.561 87.0506 121.41 87.7001 121.412 88.368C121.174 89.7323 121.198 91.1187 121.071 92.4912C120.865 93.7641 120.743 95.0792 119.476 95.851C118.623 96.4387 117.826 97.1024 117.036 97.7748C113.78 100.04 110.83 102.703 107.581 104.979C107.441 105.096 107.304 105.212 107.168 105.331C100.442 110.464 93.7114 115.589 87.0038 120.745C81.8615 124.696 76.6344 128.535 71.494 132.486C71.0506 132.826 70.6062 133.165 70.0953 133.401C69.4119 133.606 68.8452 133.965 68.5024 134.618C67.8539 135.234 67.409 136.154 66.3048 136.085C65.9732 135.698 66.1547 135.267 66.202 134.846C66.3835 134.265 66.9034 134.019 67.3449 133.692C70.6999 131.206 73.986 128.631 77.2732 126.056C84.0944 120.901 90.8274 115.631 97.6557 110.485C98.4782 109.865 99.2768 109.211 100.09 108.577C105.385 104.553 110.647 100.487 115.947 96.4705C119.4 93.8548 119.381 93.8649 119.659 89.6206C120 84.4086 120.435 79.2034 120.893 74.0007C121.009 72.6829 121.112 71.3595 121.182 70.0338C121.204 67.8225 121.445 65.6288 121.705 63.4377C121.744 63.0988 121.798 62.7608 122.083 62.5209V62.5209Z" fill="#8EA2C6"/>
<path d="M122.083 62.5209C121.908 65.0984 121.732 67.6778 121.557 70.2553C120.646 72.6106 119.55 74.8973 118.821 77.3151C117.927 80.2772 116.872 83.1871 115.986 86.1511C115.814 86.729 115.622 87.5274 114.682 86.9101C114.47 86.5146 114.473 86.0821 114.514 85.6605C114.797 82.7861 114.869 79.8968 115.086 77.0183C115.37 75.6982 115.357 74.3774 115.092 73.057C115.189 70.7617 115.257 68.4619 115.627 66.1902C115.774 65.8806 115.942 65.6531 116.26 66.0422C116.48 66.312 116.331 66.7045 116.599 67.0137C117.585 65.0778 119.124 63.5599 120.189 61.708C120.764 60.7084 121.375 59.7388 121.763 58.6443C121.898 58.2617 121.984 57.7778 122.587 57.8752C122.418 59.4235 122.251 60.9726 122.083 62.5209V62.5209Z" fill="#768EBA"/>
<path d="M122.586 57.8756C121.844 58.2433 122.04 59.072 121.733 59.6612C120.643 61.7552 119.336 63.7008 117.864 65.5313C117.302 66.2311 117.143 67.1853 116.362 67.8011C115.857 67.1992 116.432 66.4106 115.935 65.8758C115.701 65.7217 115.564 65.4792 115.588 65.2255C115.896 61.8811 115.925 58.5162 116.408 55.1857C116.433 55.0148 116.566 54.8881 116.712 54.7895C117.098 55.1681 116.785 55.7085 117.076 56.2636C118.566 54.8701 119.259 53.0684 119.983 51.3256C121.029 48.8039 121.923 46.2204 122.892 43.6676C123.042 43.2726 123.18 42.8483 123.624 42.6579C123.633 45.9134 123.19 49.133 122.888 52.3642C122.717 54.1939 122.682 56.0376 122.586 57.8756V57.8756Z" fill="#6D83B3"/>
<path d="M100.024 28.1163C99.8675 28.5154 99.5018 28.5915 99.2149 28.7512C87.2409 35.4789 75.2598 42.1965 63.2918 48.9343C62.7145 49.2589 62.2952 49.3511 61.6654 48.9902C49.7882 42.1789 37.8922 35.3957 26.0008 28.6084C25.823 28.5065 25.6625 28.3771 25.3253 28.1466C25.7825 27.9308 26.1043 27.776 26.4272 27.6264C38.1889 22.1955 49.9514 16.7688 61.7086 11.3285C62.2689 11.0703 62.7363 10.8975 63.3863 11.1969C75.4949 16.7935 87.6178 22.3601 99.7374 27.9356C99.8386 27.9832 99.9275 28.0548 100.024 28.1163V28.1163Z" fill="#FEFEFD"/>
<path d="M98.8447 42.6564C97.6842 43.9742 96.0372 44.5656 94.6014 45.4644C88.8297 49.0779 83.0295 52.7029 76.8242 55.484C72.7858 57.2924 68.5898 59.0517 63.9354 58.9505C62.4704 58.9194 61.2877 58.2519 60.044 57.7673C57.6941 56.8531 55.3934 55.7756 53.1666 54.5878C50.9543 53.4087 49.7447 51.2675 48.6757 49.112C48.2073 48.1656 47.2891 47.4501 47.2197 46.3039C48.0501 46.4347 48.6675 46.9988 49.3606 47.3935C53.3796 49.6813 57.3956 51.9777 61.3729 54.3352C62.4325 54.9634 63.2933 54.942 64.3401 54.315C68.2987 51.944 72.2948 49.6386 76.2819 47.3204C76.5317 47.175 76.8291 47.112 77.1037 47.0112C77.2244 46.9557 77.4206 46.9359 77.4352 47.0494C77.6066 48.383 78.6445 48.3582 79.6238 48.5385C84.5197 49.4444 88.8601 47.9242 92.9938 45.5217C94.4777 44.6608 95.9678 43.8115 97.44 42.9333C97.8631 42.6819 98.2873 42.2816 98.8447 42.6564V42.6564Z" fill="#FDFDFD"/>
<path d="M98.8447 42.6564C96.8969 43.442 95.1918 44.6702 93.3809 45.7016C89.6924 47.8017 85.8914 49.4545 81.5105 49.1037C80.5769 49.0291 79.6489 48.8744 78.7165 48.8193C77.5485 48.7488 77.1063 48.0921 77.1063 47.0112C82.0993 44.0964 87.0875 41.1729 92.0873 38.2719C94.2354 37.025 96.4089 35.8211 98.5701 34.5963C98.1399 35.6191 97.0106 35.7188 96.2679 36.332C95.5005 36.968 93.9946 37.3413 94.2282 38.357C94.4432 39.2907 95.8647 38.7108 96.745 38.7708C99.7846 38.9829 102.797 38.5223 105.816 38.2716C103.748 39.5197 101.682 40.7726 99.6087 42.0151C99.3154 42.1916 98.9831 42.3044 98.8447 42.6564V42.6564Z" fill="#EAF4F8"/>
<path d="M106.004 26.1928C106.286 26.095 106.568 25.9957 106.851 25.8978C106.744 26.3749 108.192 25.9998 107.38 26.8637C106.893 26.6984 106.398 26.5477 106.004 26.1928V26.1928Z" fill="#D2E2ED"/>
<path d="M100.373 33.5521C100.059 34.178 99.6976 34.7226 98.8526 34.4269L100.373 33.5521Z" fill="#EAF4F8"/>
<path d="M61.931 107.922L61.9366 131.391C62.2618 131.728 62.3154 132.164 62.2716 132.584C62.1564 133.706 62.6564 134.357 63.722 134.627C63.8822 134.768 63.956 134.951 63.9853 135.156C63.9962 135.744 63.7175 136.243 63.1444 136.223C61.7881 136.17 60.3152 136.446 59.2462 135.229C57.3037 133.519 55.1237 132.099 53.2146 130.348C52.787 129.954 52.2011 129.674 52.2806 128.946C52.7063 128.289 53.6654 128.588 54.0907 127.93C55.0644 125.222 56.681 122.815 57.6472 120.098C58.1495 118.684 58.4109 117.36 58.1742 115.845C57.7046 112.836 57.6259 109.788 57.594 106.741C57.5718 104.681 57.1803 102.647 57.067 100.59C56.8543 96.7693 56.0505 93.0231 55.5584 89.2387C55.2542 86.8999 55.3296 84.5068 54.8199 82.2052C54.0574 78.7607 54.4763 75.2923 54.3552 71.8351C54.3297 71.1283 54.264 70.4769 53.7078 69.9533C53.3548 69.6197 53.1838 69.1572 53.1275 68.6853C52.8072 66.0396 52.2472 63.4362 51.7788 60.8167C51.7413 60.6045 51.7555 60.3894 51.8662 60.1923C52.988 60.4977 53.9073 61.2009 54.8653 61.7998C56.1582 62.6105 57.4391 63.4302 58.8257 64.0715C59.499 64.5299 60.2919 64.8001 60.8965 65.3683C61.5507 66.013 61.6939 66.791 61.6883 67.6969C61.6538 72.8508 61.6767 78.0044 61.6789 83.1579C61.8954 84.1658 61.9167 85.2032 61.9074 86.2144C61.8639 91.0194 62.1635 95.824 62.0439 100.627C61.9854 103.061 61.8909 105.49 61.931 107.922Z" fill="#EEE7DD"/>
<path d="M105.556 40.8499C106.005 41.5931 105.47 42.0361 105.05 42.5207C101.995 46.057 98.0979 48.5386 94.2901 51.1431C90.7966 53.5317 87.3264 55.9506 85.2879 59.873C84.4259 61.5315 82.9853 62.7098 81.4321 63.7222C81.0945 63.9426 80.7689 64.13 80.7798 64.5913C80.7734 65.2915 80.1591 65.4601 79.7195 65.7394C77.7274 67.0114 75.7504 68.3101 73.7032 69.4844C72.4122 70.2254 71.3552 71.0267 71.3091 72.6548C69.5027 74.1777 67.3096 75.0064 65.2283 76.0344C64.842 76.2267 64.4088 76.2829 64.0416 75.9302C64.0258 73.0098 64.0093 70.0897 63.9958 67.1704C63.9909 66.2105 64.3578 65.6007 65.2696 65.0625C69.8785 62.3422 74.4166 59.4989 78.9918 56.7212C83.6176 53.9132 88.2589 51.1284 92.8967 48.3414C96.9179 45.9247 100.946 43.5184 104.974 41.1111C105.155 41.0016 105.361 40.9357 105.556 40.8499V40.8499Z" fill="#495C8F"/>
<path d="M51.8673 60.1923C52.7105 62.7601 53.0124 65.4335 53.404 68.0879C53.5053 68.7742 53.5551 69.4207 54.162 69.9121C54.6162 70.2797 54.7209 70.8446 54.7141 71.433C54.6976 72.7647 54.7925 74.1039 54.6931 75.4292C54.4302 78.9219 55.4617 82.2858 55.6421 85.7197C55.8015 88.7643 56.2985 91.7462 56.7992 94.727C57.429 98.4769 57.4147 102.284 58.0036 106.037C58.1551 107.004 58.0272 108.05 58.0426 109.063C58.0831 111.804 58.2436 114.525 58.7946 117.217C58.885 117.658 58.7616 118.056 58.624 118.472C57.774 121.026 56.7313 123.507 55.3672 125.818C54.8904 126.625 55.0457 127.701 54.1894 128.294C53.6414 127.67 53.6969 126.892 53.8856 126.222C54.4118 124.368 54.3751 122.508 54.1905 120.628C54.168 120.414 54.1999 120.201 54.2607 119.995C54.4561 119.608 54.5956 119.214 54.5967 118.768C54.5994 115.418 54.6125 112.068 54.5874 108.717C54.5859 108.456 54.5176 108.209 54.44 107.961C54.1763 106.502 54.5574 105.001 54.1722 103.548C54.0244 102.785 54.0615 102.01 54.0615 101.238C54.0578 92.0505 54.021 82.8626 54.0904 73.6758C54.1043 71.8419 53.5694 70.6377 51.9382 69.6872C49.6052 68.3308 47.2531 66.9804 45.1129 65.3159C43.9768 64.0966 43.221 62.666 42.8193 61.0521C42.2229 58.6661 40.6052 56.9019 39.1154 55.0867C37.8694 53.5695 36.7126 51.9452 35.0184 50.8312C34.5751 50.5393 33.9453 50.1532 34.308 49.3826C39.9031 52.7738 45.4973 56.1673 51.095 59.5544C51.3864 59.7302 51.7266 59.8381 51.8673 60.1923V60.1923Z" fill="#E6DED8"/>
<path d="M64.0408 75.9302C64.4733 75.9568 64.8821 75.8946 65.2764 75.6855C67.2534 74.6413 69.2372 73.6109 71.2176 72.5757C71.6861 73.0176 71.584 73.6035 71.5848 74.1454C71.5942 80.2243 71.5904 86.3029 71.5927 92.3796C71.5934 93.4957 71.2491 94.5751 71.2877 95.6924C71.1801 96.2854 70.9494 96.842 70.733 97.3993C70.1479 98.9041 69.3231 99.3194 67.7136 98.9543C67.4623 98.8977 67.208 98.7988 66.9541 98.8449C65.2351 99.1541 64.5037 98.0256 63.8724 96.7456C63.8882 91.4703 63.8334 86.1998 63.6496 80.9308C63.605 79.6265 63.5945 78.2724 63.9535 76.9741C63.9823 76.6266 64.0112 76.278 64.0408 75.9302V75.9302Z" fill="#526596"/>
<path d="M10.2873 43.2287C11.1672 42.9311 11.2283 42.4397 10.9635 41.5556C10.231 39.1062 9.65939 36.6097 9.02438 34.1307C12.1038 35.8297 15.0883 37.6872 18.0469 39.5867C21.1102 44.2643 25.6107 47.4879 29.7463 51.0722C31.3205 52.4387 32.7841 53.8532 33.6231 55.8033C33.9506 56.5623 34.4524 57.1964 35.0327 57.7841C35.3432 58.099 35.8117 58.3834 35.5979 58.967C35.0252 59.2369 34.6096 58.8654 34.1857 58.5997C26.6699 53.8933 19.1455 49.2004 11.6233 44.5041C11.1072 44.1807 10.4189 43.9783 10.2873 43.2287V43.2287Z" fill="#CBC6D0"/>
<path d="M35.5705 58.9888C33.4986 57.0312 32.8246 54.0616 30.591 52.2052C27.8282 49.9099 25.0072 47.6638 22.4312 45.1698C20.7422 43.5364 18.7464 42.0376 18.0465 39.5853C22.4833 42.2479 26.919 44.9086 31.3524 47.5734C32.3422 48.1686 33.3238 48.7777 34.308 49.3804C34.3283 49.9201 34.7154 50.2559 35.0882 50.5003C37.8626 52.3241 39.4252 55.2539 41.5872 57.632C42.2713 58.3846 42.6032 59.5023 42.9554 60.5015C43.5057 62.067 43.9854 63.6506 45.1219 64.923C44.6587 65.1352 44.2903 64.8769 43.9366 64.6524C41.3827 63.0318 38.7966 61.4651 36.2468 59.8381C35.9265 59.6342 35.5645 59.4547 35.5705 58.9888Z" fill="#D7D2D1"/>
<path d="M63.746 135.247C63.7293 135.078 63.7121 134.908 63.6942 134.739C63.171 133.705 63.1665 132.676 63.7119 131.649C63.7276 128.571 63.7411 125.49 63.7576 122.41C63.9148 122.3 64.0449 122.327 64.1492 122.489C64.6578 124.406 64.2891 126.356 64.3788 128.289C64.3836 129.935 64.6342 130.231 66.2463 129.948C69.3861 129.398 72.4167 128.496 75.2091 126.892C75.8768 126.508 76.5077 125.834 77.4274 126.238C75.5186 128.072 73.231 129.433 71.2314 131.149C69.649 132.507 67.7871 133.504 66.3213 135.004C65.905 135.683 65.3015 136.078 64.5153 136.197C63.9223 136.151 63.9369 135.615 63.746 135.247V135.247Z" fill="#7E91B4"/>
<path d="M63.9538 122.292C63.8856 122.326 63.82 122.366 63.7572 122.409C63.7516 111.262 63.8386 100.113 63.6714 88.9678C63.6327 86.3884 63.5918 83.7753 63.3102 81.1771C63.1628 79.8188 63.156 78.284 63.9534 76.9745C63.9613 83.119 63.9692 89.2642 63.9797 95.4091C63.9808 95.9665 64.0078 96.5245 64.0209 97.0826C64.3746 97.5058 64.4129 98.0189 64.4118 98.5346C64.4039 103.7 64.4688 108.865 64.3825 114.03C64.4061 116.492 64.4639 118.955 64.3514 121.417C64.3319 121.76 64.2584 122.078 63.9538 122.292V122.292ZM61.931 107.922C61.5488 107.583 61.6827 107.124 61.6816 106.712C61.6759 98.8607 61.6801 91.0082 61.6808 83.1572C62.1219 84.1028 62.1677 85.1673 62.1485 86.1335C62.0476 90.8504 62.6988 95.559 62.4025 100.261C62.2401 102.814 62.4223 105.392 61.931 107.922ZM63.7122 131.648L63.6946 134.738C62.1084 134.706 61.94 134.535 61.9329 132.937C61.9299 132.422 61.9344 131.906 61.9366 131.39C62.5195 131.534 63.0956 131.731 63.7122 131.648V131.648ZM60.8976 65.3683C60.1351 65.0509 59.3707 64.7375 58.8283 64.0719C59.6471 64.2987 60.4509 64.5479 60.8976 65.3683Z" fill="#FDFDFD"/>
<path d="M115.896 43.1849C116.239 43.0267 116.583 42.8666 116.927 42.7092C117.27 43.1148 117.179 43.6076 117.166 44.0683C117.069 47.1503 116.751 50.2184 116.55 53.2933C116.341 56.4975 116.104 59.6994 115.886 62.9021C115.69 65.7648 115.531 68.6336 115.254 71.4847C115.099 73.0675 115.187 74.6435 115.087 76.2211C114.873 79.6359 114.368 83.0402 114.491 86.4734C114.868 87.7534 113.724 87.9366 113.056 88.464C103.057 95.9064 93.0382 103.322 82.9992 110.71C79.6587 113.232 76.2661 115.681 72.9111 118.181C72.4621 118.515 72.0476 119.08 71.3451 118.673C71.2642 118.55 71.2061 118.413 71.1737 118.269C71.0548 114.421 71.1534 110.575 71.1178 106.729C71.1564 95.2757 71.5165 83.8236 71.3429 72.3677C71.3252 71.1882 71.7795 70.502 72.7862 69.8997C75.7241 68.1426 78.5984 66.2809 81.512 64.483C81.8435 64.2787 82.1571 64.0621 82.5539 64.0138C88.8845 60.0817 95.2196 56.1526 101.549 52.2168C105.95 49.4778 110.348 46.7341 114.744 43.9858C115.139 43.7388 115.512 43.4525 115.896 43.1849V43.1849Z" fill="black"/>
<path d="M82.5532 64.0141C79.389 65.9976 76.2582 68.0316 73.0472 69.9356C71.889 70.6227 71.4921 71.4532 71.4951 72.7515C71.5191 83.49 71.4925 94.2288 71.4794 104.967C71.4786 105.525 71.4591 106.083 71.4482 106.642C71.2299 107.861 71.4141 109.091 71.3473 110.314C71.0874 111.802 71.2348 113.302 71.2442 114.795C71.2487 115.667 71.0387 116.332 70.3763 116.943C68.7709 118.42 67.1862 119.919 65.3832 121.159C64.9736 121.441 64.5626 121.816 63.9827 121.594C63.9913 119.098 64.0003 116.603 64.0086 114.108C65.1166 113.358 66.4154 113.006 67.5906 112.387C69.5609 111.346 70.6722 110.004 70.6711 107.549C70.6703 104.729 70.5319 101.908 70.5897 99.0885C70.6107 98.0589 70.6943 97.0466 70.9663 96.0526C71.4689 88.2324 71.1306 80.4012 71.2176 72.5754C71.0398 71.2355 71.5326 70.403 72.7726 69.6868C75.51 68.1055 78.1186 66.3023 80.7794 64.5906C81.4534 64.6517 81.7633 63.6015 82.5532 64.0141V64.0141Z" fill="#6B7997"/>
<path d="M114.317 86.768C113.971 86.4644 114.056 86.0506 114.083 85.6811C114.317 82.3157 114.6 78.9545 114.804 75.5884C114.891 74.1368 114.981 72.6874 115.086 71.2373C115.405 66.89 115.568 62.5307 115.908 58.1856C116.312 53.0302 116.828 47.8841 116.927 42.7092C117.749 42.7482 117.449 43.3869 117.425 43.7677C117.215 47.0153 116.964 50.26 116.732 53.5069C116.701 53.9323 116.717 54.3622 116.711 54.7895L115.936 65.8758C115.762 68.288 115.59 70.701 115.417 73.1128C115.655 74.1765 115.35 75.2308 115.362 76.2908C115.086 79.2574 114.936 82.2318 114.725 85.2028C114.685 85.7516 114.729 86.3164 114.317 86.768V86.768Z" fill="#25272B"/>
<path d="M35.5705 58.9888C38.708 61.0393 41.8662 63.0588 45.1211 64.9238C47.7669 66.5988 50.3895 68.3139 53.0705 69.93C54.0438 70.5151 54.399 71.2197 54.3975 72.3329C54.3882 82.2625 54.4223 92.1933 54.4471 102.123C54.4478 102.594 54.4733 103.067 54.4876 103.539C54.7374 108.404 54.7291 113.274 54.6905 118.142C54.6811 119.233 54.1916 119.449 53.1913 118.749C51.0173 117.227 48.9248 115.594 46.8037 114.005C36.8683 106.353 26.5833 99.1646 16.5732 91.6079C14.8415 90.4572 13.2808 89.0678 11.516 87.9674C10.8705 87.5656 10.9463 86.9989 10.9583 86.4063C11.0063 82.544 10.5284 78.7161 10.2584 74.8767C10.1624 73.5105 10.1297 72.1436 9.99019 70.776C9.68525 67.7982 9.74077 64.7949 9.5371 61.8084C9.23048 57.3244 8.91391 52.841 8.5874 48.3583C8.47975 46.8639 8.41186 45.3677 8.25771 43.8749C8.20707 43.379 8.13843 42.8374 8.50376 42.3899C9.23741 42.3723 9.63387 43.0751 10.288 43.2272L35.5705 58.9888V58.9888Z" fill="black"/>
<path d="M8.50261 42.391C8.5555 46.1897 8.94596 49.9643 9.24977 53.7461C9.49094 56.7212 9.58546 59.7084 9.79813 62.6866C10.1046 66.9773 10.453 71.264 10.8022 75.5524C10.8994 76.7454 10.8765 77.9426 10.9361 79.1348C11.0629 81.6748 11.6964 84.2111 11.16 86.7707C10.7373 86.4408 10.7167 85.9562 10.7028 85.4922C10.5989 81.8266 10.2842 78.1727 10.0344 74.5135C9.82701 71.4604 9.46769 68.4155 9.40805 65.3518C9.40318 65.097 9.37579 64.8372 9.49845 64.5951C9.21039 60.3868 8.92795 56.1785 8.63089 51.9706C8.4291 49.1165 8.19017 46.2628 8.01014 43.4064C7.98763 43.0481 7.63543 42.3809 8.50261 42.391V42.391Z" fill="#2E2F31"/>
<path d="M9.49883 64.5947C9.58022 70.3341 10.5108 76.0157 10.6578 81.7584C10.6995 83.3986 10.5164 85.1526 11.1604 86.7707C11.0393 87.3689 11.4807 87.5484 11.8723 87.8321C13.5035 89.0071 15.1044 90.226 16.7153 91.428C16.8942 91.9201 16.8582 92.2046 16.236 91.9265C14.6111 90.6855 12.9968 89.4299 11.357 88.2099C10.4962 87.5705 10.7193 86.6185 10.5738 85.7759C10.4088 84.8266 10.8394 83.8176 10.3067 82.8975C10.1695 77.8298 9.70437 72.7853 9.31466 67.7341C9.23627 66.7019 9.0221 65.6149 9.49883 64.5947Z" fill="#DDDCDE"/>
<path d="M16.2368 91.9268C16.6865 92.0389 16.5563 91.594 16.7157 91.4283C22.3847 95.5842 28.0675 99.7265 33.7214 103.901C38.0659 107.109 42.3782 110.359 46.7047 113.59C46.806 113.907 46.9534 114.262 46.5359 114.438C46.2119 114.575 45.9849 114.33 45.8499 114.066C45.6965 113.768 45.3627 113.781 45.1545 113.592C45.1448 112.562 44.0983 112.441 43.5533 111.991C42.1179 110.809 40.4192 110.013 39.016 108.688C38.3097 108.023 37.8157 106.604 36.3796 106.827C36.0225 105.768 34.4952 106.159 34.1306 104.973C34.02 104.613 33.2946 104.251 32.9052 104.02C31.702 103.308 30.5479 102.532 29.3994 101.741C25.0128 98.468 20.6253 95.1968 16.2368 91.9268V91.9268Z" fill="#E8E7E8"/>
<path d="M45.1553 113.59C45.4489 113.703 45.9354 113.104 46.0528 113.809C46.0997 114.094 46.1721 114.365 46.4662 114.254C46.6091 114.199 46.6297 113.822 46.7058 113.59C49.2275 115.409 51.7499 117.226 54.4887 119.201V103.539C54.959 104.981 54.5791 106.467 54.7107 107.925C54.9808 111.001 54.767 114.084 54.8263 117.163C54.845 118.139 54.9478 119.134 54.4486 120.046C54.7531 122.08 54.9785 124.092 54.2475 126.116C54.0138 126.765 54.198 127.562 54.1901 128.293C53.8578 129.183 52.85 128.494 52.3815 129.067C51.8335 129.443 51.4866 128.984 51.1505 128.717C45.6466 124.346 39.8839 120.32 34.3267 116.019C31.9896 114.211 29.5524 112.53 27.2156 110.718C26.8027 110.398 26.1981 110.179 26.3125 109.465C27.8833 109.853 29.4061 110.387 31.0339 110.605C32.37 110.785 33.637 111.316 34.8564 112.014C37.4669 113.506 40.2969 114.52 43.2015 115.295C43.856 115.47 44.5675 115.598 45.1335 115.011C45.5787 114.552 45.4006 114.069 45.1553 113.59V113.59Z" fill="#E2DCDB"/>
<path d="M26.3117 109.467C28.0258 111.212 30.109 112.495 32.0418 113.961C38.2343 118.66 44.5596 123.184 50.6824 127.978C51.2011 128.386 51.6456 128.973 52.3811 129.068C54.2119 131.048 56.4477 132.545 58.5508 134.2C58.855 134.44 59.1802 134.638 59.3557 134.998C58.795 135.459 58.2211 135.039 57.6521 135.026C56.7564 134.76 56.1319 134.086 55.4159 133.547C47.0955 127.268 38.8296 120.918 30.5512 114.584C29.6315 113.881 28.7598 113.114 27.788 112.479C24.7664 109.971 21.4927 107.788 18.4568 105.294C18.2269 104.974 17.7104 104.846 17.7862 104.316C18.2183 103.428 18.5041 104.263 18.8008 104.428C21.4537 105.886 23.7289 107.905 26.3117 109.467V109.467Z" fill="#DBE0E8"/>
<path d="M77.4277 126.235C76.8085 126.293 76.2792 126.616 75.792 126.937C72.9981 128.786 69.7941 129.496 66.6229 130.298C66.3791 130.361 66.1146 130.351 65.8588 130.358C64.0198 130.407 63.9808 130.369 64.0258 128.541C64.2647 128.312 64.5614 128.301 64.8671 128.309C66.7406 128.348 68.3808 127.626 69.9704 126.74C72.7854 125.172 75.3389 123.215 78.0069 121.429C82.4804 118.435 86.4229 114.798 90.5033 111.333C93.4856 108.8 95.5219 105.499 97.2994 102.044C97.5293 101.6 97.5672 101.149 97.4543 100.674C97.5709 100.106 98.0638 99.8644 98.4644 99.5634C102.373 96.6227 106.347 93.7686 110.264 90.8406C110.639 90.561 111.006 90.2443 111.515 90.2256C112.557 90.6083 112.271 91.3459 111.921 92.0033C111.034 93.667 110.222 95.3862 109.06 96.8791C107.054 99.4559 105.286 102.194 103.494 104.914C102.52 106.392 101.375 107.702 100.136 108.947C94.574 113.192 89.0143 117.439 83.4492 121.679C81.4478 123.207 79.4344 124.717 77.4277 126.235V126.235Z" fill="#7689B6"/>
<path d="M100.136 108.948C101.38 107.232 102.738 105.584 103.85 103.784C106.34 99.7501 109.585 96.2115 111.639 91.8938C111.89 91.3638 112.334 90.8099 111.495 90.3807C111.468 89.7005 112.074 89.5198 112.471 89.205C113.32 88.5311 114.25 87.9528 114.858 87.0195C115.482 86.9948 115.518 86.536 115.667 86.0623C116.835 82.3705 118.004 78.679 119.264 75.0194C119.733 73.657 120.482 72.3917 120.772 70.9581C120.859 70.5248 121.106 70.2801 121.555 70.2546C121.129 75.0963 120.687 79.9365 120.285 84.7786C120.071 87.3744 119.863 89.9718 119.779 92.5726C119.726 94.1602 118.619 94.8967 117.589 95.6868C111.787 100.128 105.956 104.533 100.136 108.948V108.948Z" fill="#7E95BE"/>
<path d="M66.3273 136.056L65.8217 136.6C65.399 137.317 64.8146 137.763 63.9418 137.732C63.8271 137.7 63.729 137.626 63.6673 137.524C63.6523 136.868 64.0333 136.432 64.4966 136.044C65.1049 135.696 65.7144 135.35 66.3221 135.002C66.5827 135.352 66.1968 135.705 66.3273 136.056Z" fill="#92A3C1"/>
<path d="M69.9974 133.229C69.5376 133.739 69.0833 134.258 68.3797 134.442C68.5852 133.593 69.2112 133.303 69.9974 133.229Z" fill="#7E91B4"/>
<path d="M114.858 87.0206C114.717 88.301 113.562 88.675 112.756 89.3605C112.344 89.711 111.916 90.0412 111.495 90.3815C106.847 93.8184 102.198 97.2554 97.5499 100.693C97.4836 101.123 97.1437 101.327 96.8332 101.55C90.5026 106.092 84.3303 110.848 78.0087 115.399C77.5962 115.695 77.1626 116.37 76.5261 115.675C76.9248 114.618 78.0365 114.369 78.802 113.743C80.1482 112.644 81.5585 111.613 82.9905 110.621C92.6769 103.467 102.345 96.2861 112.05 89.1563C112.35 88.9363 112.742 88.7702 112.806 88.3253C113.144 87.6428 114.453 87.9059 114.319 86.7673C114.598 83.2456 114.877 79.7251 115.155 76.2042C115.697 76.3234 115.485 76.657 115.37 76.9636C115.2 80.3158 115.029 83.668 114.858 87.0206Z" fill="#929DB2"/>
<path d="M115.37 76.9647C115.353 76.6952 115.416 76.4048 115.155 76.2054C115.242 75.1732 115.33 74.1432 115.416 73.1129C115.74 74.3999 115.808 75.6855 115.37 76.9647V76.9647Z" fill="#7E95BE"/>
<path d="M70.6193 21.9954L72.5397 19.5517C72.4921 19.4808 72.4418 19.4119 72.3923 19.3407C65.9511 21.9722 59.5095 24.6029 53.0683 27.2336C53.0184 27.1628 52.9666 27.092 52.9168 27.0211C54.5679 25.3757 56.2208 23.7307 57.8697 22.0827C59.7634 20.1892 59.7623 20.1881 57.2699 19.0461C56.1514 18.5333 55.0341 18.018 53.647 17.3786C55.8349 16.3539 57.8768 15.584 59.7214 14.4821C61.7735 13.258 63.4891 13.3955 65.645 14.436C75.0299 18.9629 84.5175 23.2776 93.9687 27.671C94.2717 27.8116 94.5748 27.957 94.8651 28.0957C94.8265 28.5466 94.4627 28.5799 94.2286 28.7092C88.0796 32.1312 81.9185 35.5295 75.777 38.9664C75.0974 39.3465 74.5543 39.3832 73.8795 39.002C72.5348 38.2431 71.1523 37.5516 69.7866 36.8308C68.1772 35.9804 68.1813 35.9849 69.2822 34.6187C72.4625 30.6713 75.6386 26.7205 79.0192 22.5209L74.0955 24.3619C73.9766 24.4166 73.8135 24.4541 73.7437 24.357C72.9486 23.2416 71.7809 22.6239 70.6193 21.9954V21.9954Z" fill="#0B0C0F"/>
<path d="M68.1963 38.7547L72.228 40.8738C70.1077 42.059 68.1959 43.1425 66.2684 44.1998C64.9954 44.8988 63.7055 46.081 62.4171 46.0877C61.1838 46.0956 59.9408 44.8722 58.709 44.1777C49.7361 39.1175 40.7649 34.0558 31.7935 28.9952C31.4218 28.7842 31.0538 28.5657 30.6911 28.3562C30.7087 27.8472 31.1558 27.8603 31.4229 27.7344C37.6754 24.8038 43.9407 21.8995 50.1899 18.9625C50.8662 18.6443 51.4442 18.5791 52.1276 18.925C53.0439 19.3879 53.9891 19.8159 54.9568 20.1559C55.9357 20.5011 56.1435 20.7724 55.2778 21.6041C51.6493 25.0894 48.0921 28.6467 44.5003 32.1694C44.1643 32.4996 43.7761 32.7781 43.5634 33.28C46.1578 32.2736 48.7515 31.2688 51.3455 30.2621C52.2611 30.5713 52.2558 31.3763 52.1771 32.075C51.9978 33.6259 52.7599 34.4329 54.0806 35.0206C57.4083 36.504 60.694 38.0793 64.01 39.589C64.7377 39.9203 65.3734 39.914 66.0958 39.5782C66.774 39.2644 67.3486 38.6471 68.1963 38.7547V38.7547Z" fill="#0E0F12"/>
<path d="M68.1963 38.7547C67.9848 38.899 67.7725 39.0403 67.5617 39.185C66.0527 40.2254 64.6593 40.4657 62.8668 39.4586C60.1981 37.9594 57.3055 36.859 54.5097 35.5861C54.1594 35.4257 53.8222 35.2376 53.4715 35.0798C52.3234 34.5652 51.5927 33.8407 51.8467 32.4258C51.9809 31.6773 51.9415 30.8838 51.3463 30.2628C55.911 28.3438 60.4764 26.4259 65.0419 24.507C65.1008 24.586 65.1612 24.6633 65.2193 24.742L57.9405 33.214C57.9728 33.2751 58.0069 33.3366 58.0414 33.3984L71.3425 27.9154C71.3953 27.9776 71.4475 28.0398 71.4996 28.1006C70.452 29.4131 69.4052 30.7268 68.3557 32.0386C67.2826 33.3782 66.2249 34.7304 65.1248 36.0471C64.7186 36.5347 64.7261 36.775 65.3247 37.0842C66.307 37.5902 67.2417 38.1936 68.1963 38.7547V38.7547Z" fill="#23262D"/>
<path d="M70.6193 21.9954C72.3619 21.9302 73.1473 23.2664 74.0982 24.3619L65.9905 27.8056C65.9203 27.7149 65.8521 27.6249 65.7819 27.5331C67.3936 25.688 69.0061 23.8406 70.6193 21.9954V21.9954Z" fill="#16191E"/>
<path d="M64.4954 136.045C64.4662 136.659 63.9092 137.008 63.7422 137.552C63.6372 137.947 63.3259 138.056 62.976 138.107C61.4952 138.323 58.1795 136.256 57.5673 134.737L59.3549 135C60.3587 136.158 61.8203 135.67 63.0544 135.997C63.4793 136.109 63.7062 135.678 63.7452 135.248C64.0434 135.468 64.0899 135.925 64.4954 136.045V136.045Z" fill="#CBD7DF"/>
<path d="M54.4475 120.047C54.2175 119.945 53.5296 119.893 54.0848 119.576C54.8117 119.159 54.7021 118.627 54.7048 118.061C54.7153 114.682 54.7104 111.305 54.7104 107.926C55.0686 108.219 54.9583 108.628 54.9587 108.998C54.9669 112.239 54.9643 115.481 54.9651 118.722C54.9654 119.23 55.042 119.77 54.4475 120.047V120.047Z" fill="#EEE7DD"/>
<path d="M70.9655 96.0522C71.0852 98.7872 70.9471 101.521 71.1336 104.265C71.2491 105.968 71.0319 107.756 70.9456 109.505C70.8999 110.403 70.2127 110.957 69.5912 111.463C67.9551 112.797 66.1296 113.779 64.0074 114.108C64.0112 108.432 64.0157 102.757 64.0206 97.0818C64.063 97.0878 64.1301 97.0777 64.1428 97.1006C65.0802 98.6991 66.8329 98.3468 68.2447 98.7834C69.2248 99.087 69.8455 98.4945 70.2803 97.6718C70.5571 97.1523 70.5342 96.5061 70.9655 96.0522V96.0522Z" fill="#5E7195"/>
<path d="M76.6464 115.65C77.1674 115.921 77.3996 115.455 77.7154 115.223C84.3284 110.381 90.938 105.536 97.5499 100.692C98.2007 100.973 97.9816 101.397 97.7607 101.849C95.4648 106.511 92.3899 110.54 88.2363 113.725C85.4956 115.826 83.1124 118.374 80.183 120.24C77.3073 122.073 74.8262 124.48 71.728 125.995C70.8515 126.424 70.0634 127.033 69.2004 127.494C67.5872 128.356 65.8791 128.829 64.0254 128.541L63.9557 122.292L63.9823 121.594C66.5853 120.215 68.5714 118.077 70.7164 116.133C71.1016 115.783 70.9239 115.334 70.9647 114.925C71.1103 113.455 70.6699 111.95 71.2224 110.504C71.5097 112.787 71.2644 115.08 71.3574 117.367C71.3758 117.819 71.198 118.304 71.5139 118.724L71.482 118.751C72.3968 118.92 72.8071 118.102 73.3911 117.697C74.2579 117.096 75.1746 116.544 75.9462 115.802C76.1194 115.635 76.3737 115.52 76.6464 115.65V115.65Z" fill="#6D82A9"/>
<path d="M106.595 74.7133C105.865 75.9902 105.844 77.3976 105.812 78.8102C105.766 80.8064 105.452 82.7157 104.092 84.3202C103.391 85.1478 102.539 85.789 101.664 86.3741C99.3195 87.9434 97.2183 89.8542 94.7578 91.254C93.8828 91.7518 92.9353 91.8923 91.9219 91.9501C89.5499 92.0884 87.356 92.9961 85.1314 93.748C83.7583 94.2112 82.4451 94.8938 80.9223 94.7734C80.485 94.7382 80.0705 94.6977 79.6913 94.4695C80.9343 92.0816 80.2281 89.4512 80.7021 86.9693C80.6466 86.7894 80.3807 86.9165 80.5502 86.8947C80.6114 86.8865 80.635 86.9221 80.6211 87.0019C80.3162 88.7687 80.1328 90.5457 80.1002 92.3406C80.0904 92.8541 80.2449 93.4886 79.5312 93.7405C78.7424 93.733 78.5023 92.8721 77.8448 92.6614C77.6198 92.3657 77.5973 92.0209 77.6666 91.6839C78.0961 89.5974 78.3703 87.4798 78.9667 85.4289C79.2499 85.1487 79.6267 84.9829 80.0248 84.9634C80.3455 85.0765 80.6744 85.1897 80.8462 84.7516C81.0168 84.3138 80.9092 83.9488 80.5199 83.6755C80.8248 81.8405 82.0393 80.5126 83.2606 79.3042C87.2799 75.3298 91.2899 71.3284 95.5365 67.6032C97.8969 65.534 100.72 63.995 103.336 62.217C103.688 61.976 104.032 61.7211 104.396 61.5041C104.907 61.1982 105.412 60.8887 106.059 61.22C106.74 61.5715 106.877 62.1296 106.855 62.8268C106.823 63.8552 106.842 64.8856 106.849 65.9163C106.852 66.3293 106.742 66.8184 107.373 66.9084C107.503 67.2933 107.272 67.5789 107.071 67.8427C105.967 69.2884 105.885 71.0214 105.657 72.7178C105.544 73.5896 106.044 74.1615 106.595 74.7133V74.7133Z" fill="black"/>
<path d="M78.967 85.4288C79.1722 87.015 78.5575 88.4921 78.3482 90.0217C78.2266 90.9081 78.0155 91.7821 77.8452 92.6625C77.6366 93.5669 77.3456 94.4623 77.2421 95.3776C77.1254 96.4139 76.5602 96.9649 75.4874 97.3978C75.19 94.5913 74.8817 91.8739 74.6244 89.1517C74.5527 88.3905 75.2875 88.2882 75.8243 87.8684C76.0279 90.0899 76.2192 92.1704 76.4094 94.2498C76.4776 94.2592 76.5448 94.2697 76.6142 94.2787C77.0455 91.965 77.5282 89.6604 77.8819 87.3355C78.0083 86.5064 78.2716 85.8763 78.967 85.4288V85.4288Z" fill="#FBFBFA"/>
<path d="M106.595 74.7132C105.069 74.6908 105.268 73.5097 105.329 72.6207C105.473 70.5443 105.93 68.5384 107.375 66.9087C108.765 66.1179 109.204 66.3394 109.2 67.9563C109.192 70.5267 108.962 73.039 106.595 74.7132V74.7132Z" fill="#FCFCFB"/>
<path d="M112.806 88.3257C112.986 88.765 112.984 88.7605 112.533 89.0929C108.813 91.8252 105.092 94.5564 101.375 97.2925C95.2811 101.778 89.1902 106.265 83.0974 110.753C82.8326 110.862 82.7865 110.745 82.8506 110.513C90.2108 105.045 97.5713 99.5735 104.937 94.1096C107.551 92.1704 110.182 90.2533 112.806 88.3257V88.3257Z" fill="#C4CCD7"/>
<path d="M111.169 69.2775C110.467 70.3015 110.898 71.7497 109.498 72.3846C109.414 71.5432 109.757 70.8472 110.022 70.1905C110.607 68.7393 110.806 67.3274 110.07 65.8897C109.721 65.2068 110.226 64.9575 110.656 64.6933C111.406 64.2312 111.085 65.2064 111.544 65.3091C112.049 64.6554 111.741 63.398 112.936 63.133C113.163 63.5367 112.855 63.9287 112.712 64.2548C111.994 65.9005 111.773 67.5264 112.637 69.1819C113.13 70.1253 112.345 70.3442 111.697 70.7816C111.522 70.2801 111.362 69.824 111.169 69.2775V69.2775Z" fill="#FAFAFA"/>
<path d="M79.5316 93.7408C79.6865 91.8215 79.8804 89.9029 79.9775 87.9805C80.0139 87.2838 80.233 86.8509 81.0855 86.5724C80.9343 88.9336 80.8012 91.2106 80.6362 93.4856C80.5968 94.0332 80.0124 94.146 79.6902 94.4691L79.5316 93.7408V93.7408Z" fill="#F9FAF9"/>
<path d="M82.851 110.514C82.9335 110.594 83.0156 110.673 83.0978 110.753L76.6464 115.65C75.2774 116.636 73.9054 117.621 72.5382 118.614C72.204 118.856 71.9085 119.272 71.482 118.751C74.7819 116.34 78.0822 113.927 81.3844 111.52C81.8638 111.171 82.3615 110.849 82.851 110.514Z" fill="#AFB9C4"/>
<path d="M71.5139 118.725C71.0548 118.423 71.2337 117.953 71.2311 117.552C71.2142 115.204 71.2228 112.854 71.2224 110.504C71.3533 109.22 70.9652 107.904 71.4486 106.64C71.4704 110.669 71.4917 114.697 71.5139 118.725V118.725Z" fill="#5E7195"/>
<path d="M80.5206 83.6748C80.7498 83.6189 81.0596 83.2801 81.1819 83.5177C81.4602 84.0586 81.342 84.6549 81.0393 85.1871C80.8957 85.4408 80.7112 85.7388 80.3875 85.6893C80.0019 85.6305 80.1534 85.2066 80.0251 84.9637L80.5206 83.6748Z" fill="#E8E9EC"/>
<path d="M16.4145 64.3739C17.2285 63.2184 16.3534 62.088 16.335 60.9456C16.3256 60.3523 16.137 59.7511 16.3838 59.1803C17.3807 56.8723 18.3529 56.6815 20.9275 58.2669C24.0721 60.2039 27.012 62.5381 29.7411 65.0684C31.9882 67.1512 33.7375 69.6395 35.0961 72.3778C36.3916 74.9917 37.9013 77.4767 39.4196 79.9608C39.6217 80.2929 39.7763 80.6471 39.738 81.0545C39.7556 83.4034 40.2155 85.7126 40.3764 88.0502C40.3997 88.392 40.4687 88.7751 40.7256 88.9951C42.0729 90.1495 43.3451 91.4306 45.1448 91.9047C45.8582 92.5883 45.5675 93.5156 45.7423 94.3323C46.0277 95.6681 46.3799 96.9911 46.6372 98.3307C46.8484 99.4326 46.8067 100.481 45.6057 101.094C44.3916 101.717 43.0263 101.633 42.1824 100.664C40.9765 99.2797 39.7508 97.897 38.9207 96.2299C38.0787 94.5377 37.2876 92.8154 36.3668 91.1667C34.727 88.229 32.5395 85.7602 29.486 84.2572C27.476 83.2681 25.3437 82.6962 23.3497 84.4315C22.8419 84.8734 22.4237 84.5072 22.1131 84.2014C21.7241 83.8176 21.3761 83.3494 21.1447 82.8543C19.8124 79.9979 19.0994 76.9755 18.836 73.8429C19.8124 73.9644 20.8285 74.1623 20.9781 72.7133C21.1657 72.4296 21.163 71.9187 21.7253 72.0757C22.2436 73.2234 21.9428 74.5281 22.4949 75.8624C22.3704 74.7271 22.3126 73.7687 22.3678 72.8059C22.4417 72.4472 22.4702 71.9397 22.9435 72.0015C23.6389 72.093 23.3696 72.7673 23.4919 73.2017C24.4412 75.3268 25.1655 77.5756 26.8503 79.2941C27.108 79.522 27.3766 79.7345 27.6733 79.9095C27.9992 80.1625 28.3807 80.2101 28.7771 80.2015C30.1008 80.8701 31.2935 81.7543 32.5748 82.4934C32.9416 82.7996 33.1213 83.2265 33.3062 83.6452C33.5162 84.1189 33.8257 84.3959 34.38 84.2568C34.5642 84.2486 34.7394 84.2816 34.898 84.379C35.8968 85.84 37.2062 86.9262 38.9931 87.8748C38.6788 86.8617 38.0063 86.5847 37.4553 86.2403C35.6838 85.1342 34.5079 83.6452 34.1629 81.547C34.0781 81.0245 34.0346 80.5283 34.2266 80.0279C34.5769 79.1123 35.0638 78.9286 35.9224 79.417C36.2948 79.6303 36.6061 79.9406 36.9763 80.1587C37.2966 80.3476 37.5543 80.6865 38.1863 80.6085C37.186 79.5621 36.0668 78.8938 34.9576 78.227C34.5436 77.9785 34.131 78.311 33.7221 78.4144C33.083 78.4631 32.8392 77.9823 32.559 77.5482C31.9029 76.5379 31.3372 75.4717 30.8686 74.362C29.3514 70.7482 27.2329 67.5515 24.4123 64.8173C23.5178 63.9508 22.8374 62.886 21.8959 62.0558C21.606 61.7994 21.3412 61.5112 20.9946 61.3298C20.6023 61.1263 20.1777 60.9715 19.77 61.229C19.327 61.5089 19.3987 61.9842 19.4872 62.3995C19.8465 64.0831 20.3634 65.7243 20.9477 67.3409C21.2099 68.0687 21.4796 68.788 21.6416 69.5458C21.7253 69.9416 21.7538 70.3382 21.6319 70.7317C21.5524 70.9247 21.4301 71.0705 21.2099 71.105C20.6687 70.9281 20.6304 70.4214 20.4924 69.987C19.8994 68.1141 18.9748 66.4871 17.2243 65.438C16.8298 65.2007 16.4198 64.9268 16.4145 64.3739V64.3739Z" fill="black"/>
<path d="M21.2099 72.8258C20.7234 74.5915 20.4549 74.7069 18.8364 73.8422C16.9168 72.4195 14.9424 71.0545 14.2826 68.5384C13.9893 67.4215 13.6318 66.3151 13.768 65.1498C13.9544 63.5715 14.6659 63.2739 15.9663 64.1667C16.1002 64.257 16.2641 64.3058 16.4134 64.3751C17.8537 65.6307 19.614 66.5872 20.2782 68.5609C20.5569 69.3888 20.8577 70.2093 21.1492 71.0331C21.6923 71.6122 21.1904 72.228 21.2099 72.8258Z" fill="#FCFCFB"/>
<path d="M49.6427 92.8263C48.3873 91.9283 47.2384 91.1064 45.8953 90.1446C46.1593 91.5078 46.6833 92.4676 47.6222 93.1828C48.4746 93.8358 49.3461 94.4637 50.2353 95.0658C50.6663 95.3566 50.8328 95.6737 50.5583 96.1257C50.1952 96.722 49.9188 96.1639 49.648 96.0106C46.845 94.4316 45.183 92.0666 44.7652 88.8594C44.7202 88.5191 44.6628 88.1739 44.6815 87.8358C44.722 87.1106 44.722 86.3138 45.4913 85.9307C46.21 85.5728 46.689 86.1844 47.2028 86.5304C47.986 87.0585 48.7223 87.6574 49.514 88.1709C49.9878 88.4775 50.0182 88.8414 49.7672 89.2432C49.3854 89.853 49.1176 89.2278 48.867 89.079C48.3149 88.7526 47.8213 88.3298 47.2887 87.9681C46.845 87.6675 46.3776 87.1421 45.8604 87.8167C45.3364 88.5041 45.9497 88.7927 46.3971 89.1173C47.4065 89.8481 48.4203 90.5726 49.4222 91.3125C50.1029 91.817 50.0965 91.8267 49.6427 92.8263V92.8263Z" fill="#FBFBFB"/>
<path d="M45.1455 91.9043C44.9216 92.1656 44.8173 92.5827 44.3005 92.1779C43.1516 91.2799 41.9468 90.4493 40.7638 89.5944C40.2676 89.2357 40.0925 88.7103 40.0339 88.1447C39.8044 85.924 39.6041 83.7003 39.3674 81.4799C39.3318 81.1366 39.3813 80.9942 39.7384 81.0542C40.0688 81.3383 40.2564 81.6535 40.292 82.1295C40.3903 83.4462 40.7215 84.7602 40.6836 86.0671C40.6352 87.816 41.394 88.8665 42.817 89.7694C43.6793 90.3185 44.8799 90.6487 45.1455 91.9043V91.9043Z" fill="#FAFAFA"/>
<path d="M57.5685 134.736C58.9765 135.821 60.1843 137.196 62.0094 137.668C62.6268 137.826 63.1834 137.868 63.7438 137.551L63.7535 137.67C65.764 137.847 67.5519 137.072 69.2777 136.24C73.92 133.998 78.2717 131.294 82.1954 127.915C82.8109 127.386 83.3217 126.43 84.4263 126.73C84.5332 127.295 84.1278 127.597 83.7861 127.903C79.1059 132.06 73.902 135.406 68.1656 137.915C66.4552 138.664 64.6488 138.983 62.7806 138.938C61.1265 138.722 59.6468 138.063 58.2721 137.148C54.5836 134.691 51.2 131.838 47.7726 129.044C41.6454 124.056 35.3747 119.245 28.9684 114.62C28.4876 114.272 27.9388 113.986 27.6508 113.418C27.539 112.995 27.5109 112.587 27.8773 112.259C30.1514 113.687 32.1697 115.46 34.3047 117.074C39.5981 121.072 44.8537 125.122 50.1322 129.139C52.6006 131.018 55.0885 132.872 57.5685 134.736V134.736Z" fill="#404354"/>
<path d="M30.1874 123.645C30.1793 123.561 30.1782 123.477 30.1844 123.393C30.127 122.875 30.4976 122.983 30.7672 123.028C31.1877 123.099 31.577 123.284 31.9626 123.468C32.0721 123.536 32.2072 123.601 32.2544 123.715C33.2735 126.133 35.3788 127.467 37.3412 129.006C41.1258 131.976 44.7918 135.097 48.4601 138.213C49.1585 138.808 50.0635 139.052 50.7964 139.569C51.5556 140.108 52.6223 140.479 52.4235 141.754C52.2652 141.873 52.0841 141.908 51.8909 141.896C50.6138 141.724 49.4855 141.066 48.1731 140.683C48.0625 141.65 49.4938 142.533 48.2624 143.432C46.6451 143.129 45.2029 142.466 43.9756 141.358C43.781 140.325 43.2135 139.464 42.7019 138.576C42.5338 138.285 42.2795 137.956 42.5548 137.633C42.8755 137.257 43.2667 137.498 43.6137 137.644C44.1178 137.857 44.5506 138.198 45.0705 138.414C41.1397 135.384 37.7107 131.781 33.8436 128.678C33.5001 128.404 33.1325 128.207 32.6899 128.164C32.0845 127.891 31.9315 127.242 31.5452 126.786C30.9394 125.807 30.3873 124.802 30.1874 123.645V123.645Z" fill="#E1E3E9"/>
<path d="M31.9877 123.667C31.3392 123.886 30.8704 122.926 30.184 123.393C29.7414 122.778 29.5674 122.059 29.4035 121.338C29.1387 120.805 29.4297 120.662 29.8873 120.691C30.2181 120.713 30.5103 120.885 30.7999 121.038C30.9083 121.098 31.0084 121.171 31.1014 121.251C31.4844 121.648 31.6881 122.149 31.9191 122.637C32.0174 122.975 32.1944 123.309 31.9877 123.667V123.667Z" fill="#C6CBD3"/>
<path d="M30.9567 121.333C30.441 121.621 29.9177 120.214 29.4039 121.339C29.2313 120.992 29.0603 120.644 28.8878 120.299L28.8792 119.789C30.3089 119.392 31.0857 119.971 30.9567 121.333Z" fill="#A8ADBE"/>
<path d="M84.3877 126.749C82.9849 127.419 81.9497 128.575 80.7367 129.498C76.0538 133.066 71.1932 136.303 65.4346 137.933C64.7797 138.118 64.2681 138.059 63.7542 137.672C64.5089 137.442 65.1773 137.043 65.822 136.601C65.9968 137.351 66.4319 136.966 66.8048 136.821C70.2303 135.488 73.3345 133.544 76.2271 131.353C81.7437 127.175 87.1182 122.809 92.5096 118.47C94.038 117.24 95.1532 115.523 96.982 114.632C97.2536 114.499 97.2675 114.237 97.3012 113.976C97.4145 113.066 98.2734 112.777 98.8563 112.77C99.3207 112.763 99.024 113.64 99.093 114.119C97.5795 114.935 96.9265 116.563 95.6918 117.685C92.4927 120.592 89.1373 123.301 85.8171 126.057C85.4169 126.387 85.0459 126.899 84.3877 126.749V126.749Z" fill="#323A53"/>
<path d="M84.3877 126.749C88.2274 123.707 92.0967 120.7 95.5841 117.244C96.2874 116.547 97.2795 116.166 97.4985 114.957C97.5807 114.5 98.3676 114.051 99.093 114.12C99.0071 114.718 99.3413 115.37 98.8601 115.917C97.8492 116.398 97.3301 117.352 96.6392 118.156C94.3464 120.821 91.6901 123.115 89.03 125.396C87.766 126.482 86.5684 127.653 85.157 128.563C83.079 130.017 81.2573 131.826 79.0762 133.12C74.7163 135.705 70.332 138.275 65.2058 139.107C64.6061 139.204 64.0059 139.248 63.4066 139.165C63.0941 139.123 62.6722 139.14 62.7112 138.618C66.63 138.753 69.8324 136.853 73.114 135.075C76.8149 133.068 80.1418 130.564 83.3517 127.875C83.7384 127.549 84.0441 127.125 84.3877 126.749V126.749Z" fill="#434E6D"/>
<path d="M85.1641 128.298C87.9734 125.8 90.9347 123.479 93.6056 120.815C94.9326 119.492 96.3763 118.319 97.2862 116.625C97.5754 116.087 98.2134 115.886 98.8582 115.916C98.7888 116.611 99.0124 117.347 98.5623 117.986C97.8432 118.455 97.0031 118.786 96.6655 119.681C92.9815 123.905 88.8567 127.649 84.4754 131.143C79.9869 134.721 75.073 137.449 69.6002 139.178C69.2068 139.204 68.8152 139.213 68.4604 138.992C68.2079 138.206 68.9007 138.227 69.3035 138.047C71.7595 136.935 74.2332 135.869 76.6149 134.597C79.0499 133.297 81.1125 131.497 83.2546 129.802C83.8885 129.299 84.5572 128.838 85.1641 128.298V128.298Z" fill="#566284"/>
<path d="M96.5203 119.523C96.7668 118.435 97.485 117.971 98.5626 117.987C98.4962 118.236 98.4317 118.487 98.3653 118.737C98.8241 119.847 98.4115 120.785 97.7858 121.681C96.4652 121.79 95.7473 122.682 95.1404 123.719C94.1311 124.4 93.3708 125.342 92.5445 126.214C89.374 129.161 86.1269 132.019 82.6023 134.55C81.2738 135.505 79.8192 136.238 78.4423 137.108C77.3392 137.552 76.2545 138.04 75.1176 138.392C74.6375 138.541 74.151 138.759 73.6402 138.485C73.3424 137.846 73.9249 137.773 74.2512 137.656C78.6377 136.097 82.1515 133.14 85.717 130.332C89.3957 127.435 92.6874 124.092 95.8069 120.594C96.0897 120.276 96.2773 119.877 96.5203 119.523V119.523Z" fill="#6A7799"/>
<path d="M86.9326 140.151C84.7279 141.402 82.6657 142.906 80.3031 143.876C79.9528 144.019 79.5998 144.157 79.248 144.297C79.0627 144.695 78.7165 144.911 78.3459 145.102C75.5148 146.252 72.5633 146.947 69.5522 147.418C69.0837 147.49 68.6134 147.489 68.1618 147.298C67.7117 146.985 67.3846 146.618 67.6202 146.015C67.9821 145.677 68.4405 145.568 68.9123 145.524C70.9591 145.326 72.9538 144.865 74.9357 144.341C77.8287 143.473 80.62 142.367 83.2032 140.781C84.3704 140.344 85.2204 139.338 86.4259 138.963C86.5605 138.962 86.685 138.994 86.8028 139.058C87.0766 139.301 87.2327 139.568 86.978 139.917C86.9693 139.996 86.9541 140.074 86.9326 140.151V140.151Z" fill="#5D697E"/>
<path d="M86.9772 139.918C86.8906 139.654 86.8028 139.392 86.7154 139.128C86.562 138.78 86.7649 138.509 87.0035 138.367C88.5161 137.471 88.6084 135.997 88.6373 134.487C88.9074 133.646 89.4002 133.03 90.3192 132.856C91.1237 133.276 90.7197 134.067 90.89 134.865C92.3671 133.514 93.4586 132.001 94.4079 130.397C94.8636 129.625 94.0782 128.838 94.184 128.021C94.2125 127.698 94.34 127.413 94.5268 127.151C95.1517 126.666 95.0594 125.534 96.0946 125.416C96.9528 126.132 97.0012 127.024 96.5916 127.969C96.2866 128.671 95.9183 129.343 95.7525 130.099C93.5808 134.047 90.65 137.313 86.9772 139.918V139.918Z" fill="#647490"/>
<path d="M95.7514 130.1C95.5376 129.532 95.7038 129.027 96.014 128.548C96.6839 127.517 96.6891 126.488 96.0083 125.46C95.8677 124.002 96.691 122.911 97.3995 121.775C98.0514 122.007 98.1819 122.687 98.5694 123.146C98.0386 125.63 97.1516 127.969 95.7514 130.1V130.1Z" fill="#43506C"/>
<path d="M98.5701 123.147C97.7926 123.043 97.6981 122.407 97.5394 121.821C97.4561 121.766 97.4291 121.714 97.4606 121.663C97.491 121.613 97.5195 121.59 97.5503 121.59C98.1272 120.726 98.2228 119.725 98.3661 118.738C98.9493 118.841 99.1421 118.438 99.2599 117.919C99.4384 119.774 99.1714 121.485 98.5701 123.147Z" fill="#303A52"/>
<path d="M101.127 74.6484C101.366 73.0091 101.081 71.3438 101.454 69.7003C101.665 68.773 102.823 67.5268 103.788 67.4286C104.374 67.3686 104.725 67.577 104.755 68.1554C104.779 68.6205 104.783 69.113 104.658 69.5549C104.393 70.4975 104.14 71.2426 104.627 72.3674C105.218 73.7306 104.38 75.2849 103.501 76.5048C102.864 77.3871 102.04 78.1615 100.939 78.6491V76.8032C101.136 76.0967 100.564 75.3246 101.127 74.6484V74.6484Z" fill="#FCFCFB"/>
<path d="M96.8144 81.902C96.3467 84.3682 93.9788 84.617 92.3352 85.695C91.8892 85.9881 91.291 86.0521 90.7636 86.2197C90.5911 85.7317 90.7558 85.3449 91.2269 85.2017C91.9279 84.9896 92.01 84.4143 91.9924 83.8839C91.9271 81.9222 92.3832 79.9863 92.2625 78.0254C92.6387 77.2263 93.4053 77.2409 94.1138 77.1333C94.3951 76.9414 94.1769 78.0029 94.714 77.3492C95.0107 76.9909 95.5463 76.5247 96.0271 77.0198C96.5185 77.5246 96.3058 78.1832 95.8647 78.6374C94.9266 79.6029 94.0943 80.6063 93.915 82.0028C93.8614 82.4128 93.5891 82.9225 94.0651 83.1662C94.5602 83.4203 94.8336 82.9143 95.0519 82.5721C95.4412 81.9623 95.9585 81.7007 96.6677 81.7921C96.7165 81.8304 96.7653 81.8663 96.8144 81.902V81.902Z" fill="#39393A"/>
<path d="M92.4023 77.9504C92.8742 78.3114 92.6383 78.8162 92.6199 79.245C92.5524 80.8139 92.48 82.3832 92.3112 83.942C92.2403 84.5935 92.6004 85.722 91.174 85.4769C91.0828 85.4604 90.9024 85.9604 90.7629 86.2201L90.0622 86.9997C88.9096 87.3985 88.7592 86.605 88.6737 85.8007C88.5075 84.2561 88.826 82.7352 88.9329 81.2034C88.9524 80.4725 89.0672 79.8027 89.9647 79.661C90.7344 79.8095 90.605 80.4493 90.671 80.9736C90.8049 82.0335 90.4051 83.0751 90.6489 84.1542C91.0667 82.5624 91.1578 80.9238 91.276 79.2881C91.3825 78.6168 91.5235 77.9729 92.4023 77.9504V77.9504Z" fill="#FAFBFA"/>
<path d="M90.0866 79.7244C89.5353 80.0133 89.1838 80.4241 89.254 81.0913C88.8958 81.6179 88.3496 81.5148 87.8328 81.5118C87.7116 81.4991 87.5951 81.4583 87.4926 81.3926C87.2604 81.1126 87.227 80.8383 87.511 80.5714C88.6902 80.363 89.3939 79.4234 90.213 78.7173C91.893 77.2728 93.5685 75.8272 95.2803 74.4183C96.2777 73.5997 97.359 73.292 98.6005 73.355C99.0589 73.8793 98.9494 74.476 98.82 75.0746C98.5533 75.7931 98.0259 76.0419 97.2953 75.9269C96.4131 75.3988 95.7023 75.603 95.0692 76.3875C94.8111 76.7087 94.5726 77.0948 94.1281 77.2226C93.636 77.6641 92.9481 77.6401 92.402 77.9512C91.9624 78.2997 91.5674 78.676 91.5663 79.2952C91.2531 80.0553 90.6684 79.8848 90.0866 79.7244V79.7244Z" fill="#344360"/>
<path d="M87.7983 81.3742C87.8634 81.3957 87.9341 81.3926 87.9971 81.3656C88.4577 81.8802 88.3354 82.4323 87.9794 82.8956C86.9198 84.2722 87.5458 85.9019 87.2626 87.3917C87.2259 87.5855 87.3489 87.3493 87.4138 87.3422C88.152 87.2658 87.898 87.6987 87.7915 88.0562C87.3343 88.69 86.9697 89.8178 86.1153 89.4872C85.4161 89.2166 85.8441 88.1072 85.8317 87.3553C85.8122 86.177 86.337 84.9588 85.5725 83.8183C85.4698 83.6662 85.553 83.2426 85.7004 83.0942C86.397 82.3933 86.4457 81.5208 86.5185 80.6213C86.5496 80.2401 86.6456 79.7682 87.2315 79.7944C87.4779 80.1794 87.3084 80.6066 87.353 81.0122C87.3846 81.297 87.4333 81.5197 87.7983 81.3742V81.3742Z" fill="#F9FAF9"/>
<path d="M87.7923 88.0562C87.7686 87.8872 87.7439 87.5698 87.7251 87.5698C86.3231 87.6046 86.9603 86.5672 86.9933 86.0158C87.065 84.7951 86.6438 83.4263 87.9273 82.4784C88.1985 82.2794 88.0601 81.7494 87.9974 81.3664L89.2547 81.0924C89.1823 82.7532 89.0893 84.412 89.0473 86.0747C89.0308 86.7073 89.1238 87.352 90.063 87.0016C89.3053 87.3524 88.5484 87.7047 87.7923 88.0562V88.0562Z" fill="#39393A"/>
<path d="M98.5367 75.1675L98.6005 73.3546C98.6046 72.4461 98.5153 71.5357 98.8417 70.6444C98.9981 70.2152 99.2025 69.7857 99.6466 69.8551C100.067 69.9195 99.8484 70.4176 99.863 70.7257C99.8866 71.2287 99.8581 71.7339 99.8536 72.2388C99.6777 72.9513 99.6965 73.6601 99.8731 74.3707C100.064 75.1312 100.063 75.9096 99.7711 76.627C99.4879 77.3189 99.5517 77.9396 99.8529 78.579C99.9436 79.631 99.4493 80.2607 98.4501 80.5302C97.6602 79.9226 97.9872 79.0535 97.9456 78.2832C97.8878 77.2027 98.2059 76.1799 98.5367 75.1675V75.1675Z" fill="#F8F8F8"/>
<path d="M82.2614 92.465C82.3983 90.1165 82.5093 87.9779 82.6541 85.8419C82.7017 85.1414 82.7422 85.1219 83.6623 85.2088C83.9792 85.2381 83.8419 85.0083 83.9072 84.9075C84.1784 84.4967 84.2047 83.921 84.894 83.6129C84.9229 84.3828 85.0077 84.9858 84.3753 85.5724C83.8446 86.0649 83.648 86.8089 83.6034 87.5611C83.5351 88.7166 83.3915 89.8706 83.384 91.0261C83.378 91.7532 83.0307 92.0958 82.2614 92.465V92.465Z" fill="#F7F8F8"/>
<path d="M98.5367 75.1675C98.6208 76.9557 98.0443 78.7345 98.449 80.5287C97.6587 80.694 97.6459 81.7858 96.8151 81.9016C96.8151 81.9023 96.7765 81.8626 96.7765 81.8626C96.5638 81.6879 96.4483 81.4424 96.4491 81.1872C96.4554 79.477 96.6179 77.7754 96.787 76.0749C96.8031 75.9055 96.9442 75.7754 97.0878 75.6738C97.6279 75.672 98.2093 75.781 98.5367 75.1675V75.1675Z" fill="#39393A"/>
<path d="M99.8507 78.5767C99.4197 78.6914 99.3387 78.4538 99.3679 78.1004C99.5303 76.145 99.6909 74.1923 99.8529 72.2366C99.8915 72.8224 99.8177 73.4476 100.007 73.9809C100.142 74.3692 100.431 74.979 101.127 74.6484C101.158 75.374 101.201 76.1019 100.941 76.8035C100.878 76.6165 100.821 76.2136 100.656 76.347C100.269 76.6611 99.6477 76.934 99.8432 77.6079C99.9411 77.9493 100.05 78.2495 99.8507 78.5767V78.5767Z" fill="#344360"/>
<path d="M87.7983 81.3743C87.571 81.6321 87.3058 82.0088 87.2488 81.2911C87.2098 80.7944 87.2349 80.2937 87.2319 79.7956C87.7581 79.8972 87.3452 80.3376 87.5106 80.5699C87.4862 80.8806 87.4592 81.1932 87.7983 81.3743V81.3743Z" fill="#39393A"/>
<path d="M106.577 71.6252C106.594 70.3974 106.703 69.5083 107.129 68.6905C107.267 68.427 107.457 68.1268 107.807 68.2078C108.095 68.2745 108.122 68.5822 108.131 68.8431C108.173 69.9607 108.131 71.0735 107.738 72.1365C107.592 72.5289 107.391 73.0585 106.9 72.9547C106.444 72.8598 106.61 72.3141 106.58 71.9457C106.563 71.7347 106.577 71.518 106.577 71.6252V71.6252Z" fill="#313D59"/>
<path d="M21.3547 69.4847C20.5697 67.2843 19.7857 65.0834 19.2317 62.8106C19.0618 62.1157 18.7351 61.2589 19.5277 60.8407C20.309 60.4269 21.1176 60.7916 21.7346 61.4321C25.4776 65.324 29.27 69.171 31.2395 74.3789C31.6761 75.5303 32.4075 76.5692 32.9866 77.6678C33.1603 77.9957 33.3658 78.2364 33.76 78.2532C34.0256 79.8817 33.8013 81.5856 34.5496 83.1429C34.7416 83.5406 35.1006 83.9502 34.7469 84.4468C34.5728 84.4551 34.398 84.4622 34.2236 84.4708C33.5882 84.3322 33.5492 83.7486 33.3703 83.2902C32.4341 80.89 31.5808 78.456 30.6776 76.043C30.5156 75.6112 30.4496 74.9419 29.9661 74.9051C29.3799 74.859 29.48 75.5929 29.2737 75.9789C28.5757 77.29 28.5374 78.8859 27.5217 80.0628C27.1935 80.0489 26.979 79.869 26.8263 79.5943C26.5844 78.7101 25.9329 78.0392 25.5826 77.2128C25.3722 76.7165 25.1692 76.2094 26.0038 76.0629C26.8443 75.9148 26.7975 75.2481 26.7119 74.6518C26.4854 73.0697 25.8609 71.6743 24.5357 70.6998C23.607 70.0169 22.6787 69.3292 21.7001 68.6958C21.573 68.9671 21.7013 69.3311 21.3547 69.4847V69.4847Z" fill="black"/>
<path d="M21.3547 69.4847C21.4724 69.0788 21.1851 68.6437 21.4848 68.1647C23.8699 69.8637 26.683 71.1286 27.0453 74.5798C27.1935 76.0025 26.8334 76.5119 25.5514 76.3826C26.0015 77.2514 26.4411 78.0636 26.8402 78.8968C26.9362 79.0973 27.366 79.3784 26.8263 79.5943C26.2168 79.3379 25.9047 78.833 25.6272 78.2622C24.8256 76.612 23.9903 74.9767 23.1685 73.3351C23.927 72.9723 24.3275 73.6387 24.8586 73.9273C25.0754 74.0461 25.2791 74.3272 25.5304 74.169C25.8503 73.9689 25.6853 73.6255 25.608 73.3501C25.461 72.8325 25.1002 72.4652 24.6782 72.1567C24.0931 71.7302 23.4855 71.3366 22.6971 70.7234C22.9082 71.6144 22.3392 72.2185 22.6734 72.9142C22.7162 73.8901 22.5943 74.874 22.8891 75.8395C22.9634 76.0827 23.1048 76.5213 22.7211 76.6093C22.3231 76.7 22.1164 76.3147 22.0703 75.9733C21.9 74.6761 21.7665 73.3733 21.6172 72.0742C21.2298 71.6664 21.5891 71.1563 21.4334 70.7171L21.3547 69.4847V69.4847ZM27.5209 80.0616L29.351 74.7526C29.4447 74.4827 29.456 74.1098 29.8569 74.1244C30.1941 74.1368 30.3659 74.4291 30.4766 74.7065C30.9022 75.7734 31.3191 76.8439 31.7271 77.9178C32.562 80.1014 33.3905 82.285 34.2236 84.4693C33.5492 84.9832 33.3047 84.427 33.1452 83.9637C32.9862 83.4908 32.7576 83.0441 32.4671 82.6384C31.8636 82.1099 31.1626 81.725 30.4983 81.2869C29.7969 80.8214 29.3127 80.2149 29.468 79.2948C30.1694 78.3387 30.5853 79.3934 31.1532 79.4706C30.9113 78.6756 30.6097 77.8469 30.2616 76.9328C29.9079 77.6753 29.798 78.4489 29.4185 79.1115C29.2426 79.5587 29.1713 80.0714 28.6781 80.3248C28.144 80.8885 27.8413 80.4353 27.5209 80.0616V80.0616ZM34.7464 84.4468C33.8691 82.4701 33.0819 80.4777 33.7592 78.2532C34.2266 77.4819 34.8402 77.703 35.3968 78.0763C36.387 78.7401 37.327 79.4807 38.3127 80.1512C38.75 80.4492 38.6975 80.7505 38.486 81.1291C38.1555 81.7156 37.9039 81.1714 37.6946 81.0399C37.0772 80.652 36.5146 80.182 35.9054 79.7787C34.9865 79.1696 34.4254 79.4099 34.4269 80.5204C34.4284 82.2958 34.961 83.9101 36.4197 85.0649C37.2291 85.702 38.0642 86.3058 38.9229 86.8748C39.4 87.193 39.5647 87.5048 39.2474 88.0277C38.8183 88.7376 38.375 88.0127 38.2459 87.8988C37.0209 86.8111 35.3541 86.1541 34.7464 84.4468Z" fill="#FBFBFB"/>
<path d="M22.6727 72.9131C22.3389 72.0949 22.4615 71.2299 22.346 69.9893C23.7199 71.3119 25.4922 71.7118 26.0199 73.5083C26.1452 73.9352 26.3413 74.5127 25.8819 74.8043C25.518 75.0348 25.2255 74.5266 24.8988 74.3546C24.3054 74.0427 23.9071 73.3992 23.1686 73.3351C23.1292 73.1904 23.038 73.0386 23.0605 72.9048C23.1033 72.6477 23.379 72.2688 22.957 72.2253C22.5846 72.1875 22.7541 72.6672 22.6727 72.9131V72.9131Z" fill="#354461"/>
<path d="M29.6135 79.2798C29.6919 80.6527 30.828 81.1587 31.7353 81.8386C32.038 82.0661 32.361 82.2453 32.466 82.6399C31.0767 82.074 29.8757 81.2029 28.677 80.3252C28.8517 79.896 28.8495 79.396 29.1991 79.0377C29.4129 78.9924 29.5524 79.0703 29.6135 79.2798V79.2798ZM21.4331 70.7148C21.6577 71.1459 21.6577 71.6057 21.618 72.0713C21.4818 72.3235 21.3464 72.575 21.2099 72.8257C21.1897 72.2279 21.1705 71.6301 21.1503 71.0327L21.4331 70.7148Z" fill="#344461"/>
<path d="M14.6746 66.6393C14.6734 66.176 14.5962 65.655 15.071 65.3616C15.5939 65.0373 15.9416 65.4927 16.3208 65.7337C18.2772 66.9766 20.0243 68.3768 20.2666 70.9274C20.3116 71.4041 20.3289 71.8644 20.1338 72.3111C19.9789 72.6635 19.7606 72.8396 19.3319 72.7249C16.9989 72.0979 14.6821 69.0897 14.6746 66.6393V66.6393Z" fill="#2C3854"/>
<path d="M85.1641 128.298C83.7212 129.892 81.9069 131.044 80.2847 132.423C77.1258 135.104 73.3221 136.556 69.5924 138.162C69.1655 138.346 68.6967 138.48 68.3865 138.87C67.0291 139.876 65.4421 139.878 63.8664 139.87C60.3711 139.851 57.7144 137.895 55.1031 135.936C49.3351 131.613 43.9333 126.828 38.2193 122.435C35.4629 120.315 32.631 118.304 29.8146 116.269C29.3011 115.898 28.7704 115.505 28.1035 115.415C27.6553 114.862 27.9493 114.214 27.8766 113.613C29.393 114.33 30.6379 115.446 31.9634 116.433C36.0784 119.5 40.1889 122.573 44.2318 125.732C47.9369 128.627 51.505 131.698 55.2235 134.577C57.4762 136.323 59.7094 138.208 62.7097 138.614C64.105 139.288 65.528 138.829 66.8153 138.445C72.3559 136.797 77.4322 134.2 81.9797 130.596C83.0033 129.787 83.8903 128.769 85.1641 128.298V128.298Z" fill="#565B70"/>
<path d="M30.9567 121.333C30.816 120.076 29.8971 119.865 28.8795 119.787C28.7287 119.36 28.5768 118.935 28.426 118.509C29.1567 118.099 29.6293 118.687 30.163 118.975C34.1621 121.139 37.5569 124.126 41.068 126.961C44.9797 130.12 48.618 133.615 52.7206 136.538C54.9219 138.108 57.1232 139.689 59.6175 140.803C60.901 141.378 62.2457 141.478 63.6117 141.678C68.4003 142.38 72.6132 140.346 76.9949 139.092C77.6111 138.916 78.1756 138.571 78.8151 138.447C78.9438 138.447 79.0676 138.473 79.1827 138.531C79.464 139.158 78.9014 139.41 78.6171 139.779C78.2938 140.197 77.7424 140.438 77.6419 141.033C76.8047 141.769 75.7159 141.875 74.7125 142.184C72.8884 142.748 71.0157 143.143 69.1186 143.362C68.1269 143.492 67.1412 143.693 66.1322 143.623C65.9177 143.62 65.7024 143.621 65.489 143.62C64.6484 143.574 63.8015 143.681 62.9655 143.53C61.5015 142.93 60.0489 142.314 58.5219 141.843C56.8742 141.335 55.6045 140.066 54.1444 139.168C48.4304 135.655 43.8245 130.783 38.6934 126.554C36.7366 124.94 34.7352 123.387 32.631 121.966C32.1138 121.615 31.5339 121.49 30.9567 121.333V121.333Z" fill="#A4AABB"/>
<path d="M78.9625 138.605C76.4807 139.807 73.8442 140.538 71.1748 141.175C70.2622 141.393 69.3906 141.822 68.472 141.949C63.7633 142.609 59.5395 141.621 55.5089 138.884C49.1435 134.564 43.6193 129.243 37.6079 124.51C34.7262 122.241 31.8276 119.987 28.426 118.508C28.3439 118.078 28.2606 117.65 28.1781 117.22C28.6563 116.78 29.043 117.174 29.4522 117.361C32.0039 118.529 34.2052 120.247 36.3961 121.947C39.1968 124.121 42.0144 126.282 44.6482 128.665C47.9537 131.871 51.4967 134.79 55.2966 137.392C57.5745 138.952 59.9543 140.293 62.716 140.87C65.2812 141.407 67.819 141.307 70.3012 140.599C72.6935 139.917 75.025 139.017 77.3332 138.079C77.9671 137.954 78.5462 137.479 79.2472 137.782C79.4873 138.174 79.311 138.42 78.9625 138.605V138.605Z" fill="#8C91A7"/>
<path d="M28.1024 115.415C28.3075 114.629 28.7085 115.198 28.9347 115.345C32.1877 117.471 35.3185 119.77 38.3724 122.169C41.6258 124.725 44.8837 127.277 48.0805 129.904C51.0811 132.373 54.0885 134.817 57.2515 137.085C60.7169 139.57 64.3735 140.158 68.3869 138.872L69.679 138.873C69.3666 139.995 68.1851 139.717 67.4949 140.23C65.4418 140.753 63.3859 140.559 61.3294 140.262C60.9041 140.251 60.4937 140.159 60.0946 140.018C59.5406 139.824 58.9615 139.684 58.5017 139.286C56.9305 137.909 55.267 136.664 53.371 135.758C52.2863 135.264 51.4408 134.457 50.5872 133.656C48.3311 131.168 45.6114 129.204 43.0128 127.12C39.4717 124.282 35.9816 121.371 32.2398 118.784C30.8716 117.837 29.2955 117.178 28.1447 115.923C28.1305 115.755 28.1159 115.584 28.1024 115.415V115.415Z" fill="#6B6C86"/>
<path d="M28.144 115.922C31.1157 117.446 33.7855 119.426 36.3904 121.485C40.7353 124.921 45.0483 128.398 49.3535 131.885C49.9082 132.332 50.3403 132.93 50.8309 133.456C50.1592 133.973 49.7848 133.335 49.4094 133.02C47.7305 131.619 46.0442 130.229 44.3807 128.812C40.3059 125.395 36.2003 122.013 31.807 119.01C30.7042 118.256 29.522 117.542 28.1777 117.222L28.144 115.922V115.922Z" fill="#787D93"/>
<path d="M31.9878 123.667C31.8254 123.339 31.6892 123.004 31.7316 122.626C32.427 122.223 32.8523 122.78 33.317 123.103C37.084 125.735 40.505 128.8 43.9955 131.768C47.5591 134.797 51.2304 137.671 55.0554 140.352C55.9264 140.962 56.9852 141.293 57.8502 141.93C58.2391 142.215 58.9863 142.416 58.4225 143.174C57.5122 143.459 56.6548 143.039 55.7677 142.994C54.9422 142.814 54.1057 142.67 53.2986 142.415C52.9291 142.299 52.4138 142.313 52.3841 141.723C52.1433 140.765 51.4228 140.187 50.6156 139.819C47.8352 138.551 45.857 136.238 43.476 134.454C40.4139 132.161 37.7568 129.365 34.4378 127.362C33.1753 126.602 32.6592 125.003 31.9878 123.667V123.667Z" fill="#C5CAD5"/>
<path d="M37.6563 136.846C37.3203 136.478 36.9857 136.111 36.6519 135.744C36.2858 134.666 37.264 134.643 37.8607 134.212C36.7336 133.08 35.5919 131.948 34.4565 130.812C33.9704 130.301 33.6205 129.678 33.1141 129.18C32.8876 128.832 32.556 128.516 32.7649 128.035C33.2379 127.582 33.601 128.026 33.853 128.271C34.5608 128.966 35.5019 129.39 36.1605 130.081C38.9421 132.995 42.1265 135.436 45.1725 138.04C45.4122 138.245 45.629 138.535 45.5386 138.953C44.488 138.78 43.8331 137.805 42.6767 137.653C42.9119 138.982 44.3192 139.8 44.1197 141.219C43.8357 141.442 43.5394 141.352 43.2795 141.202C41.5339 140.198 39.8637 139.086 38.3288 137.773C38.0276 137.517 37.9189 137.126 37.6563 136.846V136.846Z" fill="#EFF1F4"/>
<path d="M52.3845 141.725C53.4163 142.344 54.6781 142.197 55.7396 142.72C56.1769 143.193 56.4526 143.772 56.7332 144.335C57.2433 145.358 56.9173 145.906 55.7816 145.848C55.0607 145.811 54.4407 145.852 53.9613 146.447C52.2094 146.449 50.6085 145.98 49.1948 144.921C49.1656 144.485 49.2916 144.12 49.6791 143.879C50.2957 143.639 50.8433 143.943 51.4116 144.096C51.6475 144.158 51.9168 144.337 52.1186 144.088C52.3039 143.86 52.1276 143.605 52.0548 143.366C51.8905 142.826 51.3823 142.323 51.865 141.708C52.0383 141.713 52.2108 141.718 52.3845 141.725V141.725Z" fill="#9DA7BE"/>
<path d="M49.8028 144.028C49.2867 143.769 48.771 143.509 48.2538 143.251C48.9072 142.345 48.0452 141.782 47.7515 141.098C47.6364 140.831 47.3607 140.596 47.6375 140.311C47.8539 140.089 48.1052 140.249 48.3423 140.343C49.5155 140.801 50.6914 141.253 51.8662 141.708C51.811 142.478 52.3931 143.024 52.5706 143.707C52.7453 144.379 52.7247 144.92 51.7383 144.554C51.1141 144.322 50.4484 144.2 49.8028 144.028V144.028Z" fill="#C5CAD5"/>
<path d="M58.5605 142.976C58.1738 142.159 57.3104 141.934 56.6296 141.55C51.9164 138.89 47.8554 135.378 43.7273 131.935C40.1236 128.927 36.6132 125.797 32.7874 123.059C32.4724 122.833 32.137 122.639 31.7316 122.627C31.4728 122.196 31.2143 121.764 30.9567 121.333C31.4533 120.983 31.9251 121.101 32.3868 121.409C34.6636 122.929 36.8563 124.563 38.9357 126.342C41.9547 128.924 45.0656 131.41 47.9436 134.14C50.8943 136.941 54.4414 138.854 57.726 141.151C58.7979 141.901 60.2611 142.086 61.533 142.564C61.9538 142.722 62.4981 142.711 62.7059 143.25C61.6167 143.945 60.4438 143.603 59.2908 143.527C58.9791 143.434 58.7113 143.282 58.5605 142.976Z" fill="#A8ADBE"/>
<path d="M67.6119 139.902C68.1941 139.346 69.1479 139.533 69.6782 138.872C75.5508 136.919 80.7956 133.874 85.5245 129.89C88.3418 127.519 91.1533 125.15 93.6934 122.48C94.6337 121.49 95.3561 120.296 96.5203 119.522C96.4618 120.553 95.7154 121.172 95.0905 121.848C90.1826 127.163 84.7808 131.904 78.7169 135.874C77.1029 136.93 75.229 137.439 73.5487 138.353C71.7228 139.456 69.8223 140.273 67.6119 139.902V139.902Z" fill="#66718E"/>
<path d="M44.3807 128.811C45.9058 129.539 46.9646 130.875 48.3164 131.823C49.1322 132.396 49.6772 133.399 50.8306 133.456C51.6036 134.255 52.4858 134.916 53.4122 135.521C55.1353 136.721 56.8573 137.926 58.5782 139.128C59.0928 139.301 59.6093 139.474 60.1239 139.647C60.6568 140.367 61.5289 140.218 62.2284 140.349C64.594 140.79 66.9679 140.717 69.2874 139.973C72.4426 139.211 75.5557 138.322 78.4521 136.81C83.6165 133.866 88.0214 129.946 92.3907 125.98C92.7504 126.601 92.2373 126.925 91.9114 127.272C89.1215 130.252 85.9457 132.787 82.6391 135.154C80.9801 136.341 79.3627 137.623 77.4168 138.357C74.7748 139.571 72.0427 140.722 69.2383 141.28C64.7351 142.175 60.4269 141.159 56.51 138.626C52.2566 135.875 48.4364 132.592 44.6755 129.231C44.5525 129.117 44.479 128.951 44.3807 128.811V128.811Z" fill="#7F89A2"/>
<path d="M77.4187 138.354C78.8159 137.399 80.2194 136.455 81.6076 135.487C85.2646 132.942 88.727 130.165 91.8142 126.939C92.0798 126.661 92.4016 126.419 92.3926 125.978C93.211 125.156 93.7759 124.055 94.9713 123.649C94.9364 124.999 94.19 125.996 93.3453 126.948C92.0269 127.651 91.195 128.902 90.1804 129.914C88.0076 132.082 85.559 133.866 83.061 135.597C82.1785 136.207 81.3439 136.877 80.464 137.488C80.105 137.736 79.7772 138.212 79.2285 137.839C78.6246 138.011 78.0222 138.183 77.4187 138.354Z" fill="#7F8EAE"/>
<path d="M93.1664 126.746C94.0114 125.855 94.415 124.708 94.9709 123.649C95.5042 122.554 95.8988 121.285 97.5503 121.589C97.5444 121.666 97.5408 121.744 97.5394 121.821L96.0091 125.459C95.3966 125.937 95.4277 126.863 94.7353 127.286C94.223 127.039 93.6206 127.396 93.1229 127.044C93.0557 126.933 93.0718 126.834 93.1664 126.746Z" fill="#96A4BC"/>
<path d="M78.4536 136.809C78.0399 137.589 77.1734 137.586 76.5013 137.888C74.6124 138.739 72.6729 139.475 70.6748 140.033C70.2754 140.144 69.8388 140.121 69.4172 140.162C67.0598 140.869 64.6683 141.026 62.2551 140.524C61.8556 140.442 61.2998 140.498 61.158 139.903C63.309 140.18 65.4605 140.399 67.6112 139.903C69.6846 139.746 71.5731 138.887 73.5483 138.354C75.3288 138.297 76.7942 137.249 78.4536 136.809V136.809Z" fill="#767C92"/>
<path d="M69.1681 143.036C72.0866 142.487 75.0182 141.986 77.7439 140.723C79.5098 139.659 81.3154 138.685 83.3378 138.177C84.4518 139.087 83.7557 140.027 83.3873 140.961C80.8559 142.681 78.0534 143.776 75.1146 144.561C73.5941 144.823 72.0682 145.056 70.5225 144.903C69.2821 144.779 68.9093 144.227 69.1681 143.036Z" fill="#222A42"/>
<path d="M68.1168 147.106C65.1083 147.534 62.0987 147.569 59.0879 147.13C60.1126 146.208 60.1336 145.985 59.2908 144.845C59.0167 144.474 58.6434 144.159 58.5564 143.681C58.478 143.254 58.5969 143.005 59.0883 143.262C60.2942 143.257 61.5012 143.254 62.707 143.25L65.5516 143.276C65.387 143.991 64.7718 143.733 64.3251 143.855C63.89 143.975 63.2153 143.522 63.0461 144.235C62.9073 144.817 63.8822 145.909 64.48 145.976C64.998 146.033 65.4957 145.864 66.0029 145.801C66.3007 145.765 66.5985 145.746 66.8997 145.771C67.1731 145.805 67.4308 145.87 67.6071 146.107C67.7758 146.44 67.9458 146.774 68.1168 147.106Z" fill="#6D7B93"/>
<path d="M67.6059 146.106C67.3528 146.098 67.0996 146.091 66.846 146.082C66.4507 145.465 66.6529 144.576 65.8645 144.105C65.6094 143.954 65.6432 143.48 66.0689 143.291C67.1018 143.206 68.1352 143.121 69.1678 143.036C69.1768 144.17 69.7364 144.612 70.8747 144.559C72.2835 144.493 73.701 144.554 75.115 144.56C72.7014 145.513 70.1276 145.684 67.6059 146.106V146.106Z" fill="#323C58"/>
<path d="M83.3877 140.961C83.3449 140.453 83.3791 139.966 83.5362 139.465C83.6634 139.055 83.8273 138.508 83.1173 138.363C83.8007 137.093 85.0628 136.657 86.2934 136.189C86.4419 136.133 86.5819 136.329 86.6659 136.483C86.9067 137.389 86.9862 138.281 86.4367 139.117C85.415 139.725 84.5688 140.62 83.3877 140.961V140.961Z" fill="#364567"/>
<path d="M86.4364 139.119C86.4401 138.152 86.4442 137.184 86.4469 136.218C86.93 135.27 87.5965 134.558 88.7322 134.458C89.2472 135.699 88.8031 137.406 87.7202 138.207C87.3489 138.482 86.9213 138.68 86.7139 139.128C86.6214 139.124 86.5289 139.121 86.4364 139.119V139.119Z" fill="#4E6089"/>
<path d="M88.7329 134.457C87.9708 135.043 87.2097 135.631 86.4476 136.217L83.1165 138.363C81.336 139.173 79.6557 140.212 77.7439 140.722C77.6603 139.61 78.9456 139.466 79.2375 138.62C79.976 137.597 81.1875 137.272 82.2009 136.681C86.0159 134.455 89.2918 131.635 91.959 128.117C92.3018 127.667 92.6326 127.235 93.1694 127.013C93.6618 127.273 94.3929 126.165 94.7349 127.286C94.6337 127.528 94.5313 127.768 94.43 128.009C93.4158 129.942 92.2264 131.729 90.321 132.916L88.7329 134.457Z" fill="#B2BED2"/>
<path d="M90.3214 132.916C91.6912 131.28 93.061 129.646 94.4312 128.009C94.3456 128.857 95.2867 129.593 94.7567 130.463C93.711 132.184 92.5378 133.813 91.0397 135.181C90.9174 135.293 90.7798 135.431 90.5941 135.318C90.3346 135.155 90.2944 134.887 90.4021 134.64C90.6654 134.043 90.6335 133.477 90.3214 132.916Z" fill="#7B8FB9"/>
<path d="M102.228 76.3496C102.228 75.5007 102.205 74.741 102.237 73.9812C102.26 73.4149 102.687 73.0731 103.172 73.1188C103.778 73.1735 103.605 73.7597 103.567 74.1514C103.481 75.0637 103.212 75.8909 102.228 76.3496V76.3496Z" fill="#35435F"/>
<path d="M102.397 72.0364C102.441 71.1856 102.439 70.5087 102.527 69.8423C102.574 69.4806 102.917 69.2119 103.261 69.2396C103.729 69.2764 103.679 69.7254 103.632 70.047C103.523 70.7677 103.348 71.4746 102.397 72.0364V72.0364Z" fill="#384561"/>
<path d="M97.0871 75.6742C96.9835 77.7375 96.8782 79.7989 96.7758 81.8629C95.9048 82.077 95.3103 82.6272 94.837 83.3693C94.6596 83.6485 94.3167 83.8925 93.963 83.7861C93.5175 83.6526 93.4889 83.2036 93.4994 82.8224C93.5456 81.3154 94.0058 79.9664 95.1168 78.893C95.3325 78.6842 95.5763 78.5066 95.787 78.2941C96.1419 77.9376 96.1505 77.426 95.8819 77.1307C95.6033 76.8226 95.2852 77.245 95.0343 77.4429C94.7695 77.6505 94.538 77.8979 94.2901 78.1307C94.0437 77.8252 94.151 77.5141 94.1296 77.2218C94.3955 76.4797 95.0125 76.0179 95.5462 75.5007C96.092 74.9707 96.6433 74.9876 97.0871 75.6742V75.6742Z" fill="#FBFBFA"/>
<path d="M90.0866 79.7243C90.5712 79.5508 91.1548 79.7146 91.567 79.2941C91.4879 80.7888 91.4163 82.2846 91.3184 83.7771C91.2999 84.0305 91.2172 84.2751 91.0779 84.4877C90.9035 84.7471 90.7396 85.1717 90.3342 85.0188C90.0041 84.8947 90.0975 84.4971 90.1129 84.2107C90.1733 83.0586 90.2756 81.9072 90.321 80.7524C90.3349 80.4069 90.5656 79.9721 90.0866 79.7243Z" fill="#39393A"/>
<path d="M29.6135 79.2798C29.4751 79.1992 29.3382 79.1179 29.1998 79.0377C29.5036 78.1206 29.8056 77.2042 30.2197 75.9546L31.7631 80.1621C30.8457 80.1636 30.5764 78.9204 29.6135 79.2798Z" fill="#384764"/>
<path d="M93.1698 127.013C89.6137 132.185 84.8633 135.927 79.2375 138.62C79.1456 138.615 79.0545 138.611 78.9622 138.605C79.05 138.35 79.14 138.096 79.2277 137.84C81.0154 136.612 82.7977 135.377 84.591 134.159C86.9262 132.57 88.9734 130.639 91.0371 128.731C91.7482 128.071 92.1304 127.06 93.1671 126.748L93.1698 127.013Z" fill="#929FBE"/>
<path d="M66.0696 143.291C65.8284 143.636 65.9267 144.081 66.1926 144.198C67.1465 144.614 66.7999 145.401 66.846 146.082C66.5895 146.092 66.3303 146.083 66.0764 146.114C63.5112 146.435 63.2854 146.306 62.392 144.067C62.1455 143.448 62.6073 143.568 62.9148 143.528C63.791 143.418 64.7092 143.737 65.552 143.274C65.7238 143.281 65.8971 143.286 66.0696 143.291Z" fill="#4D5A79"/>
<path d="M58.5801 139.127C56.6131 138.275 54.8784 137.09 53.4137 135.52C53.8822 135.45 54.2171 135.704 54.572 135.952C55.7175 136.757 56.8674 137.555 58.0336 138.33C58.3389 138.535 58.5707 138.741 58.5801 139.127V139.127Z" fill="#767C92"/>
<path d="M61.1587 139.902C63.4774 141.001 65.8753 140.753 68.2844 140.329C68.6606 140.262 69.0402 140.215 69.4175 140.162C66.3839 141.367 63.3608 141.187 60.3515 140.072C60.239 140.03 60.1981 139.792 60.1246 139.647C60.4487 139.816 60.7832 139.943 61.1587 139.902Z" fill="#787D93"/>
<path d="M59.0875 143.262C58.298 143.484 58.9158 143.874 59.0523 144.066C59.364 144.508 59.7859 144.857 60.0297 145.367C60.5894 146.527 60.4307 146.845 59.0868 147.129C57.3217 147.123 55.6147 146.759 53.9208 146.31C54.0709 145.474 54.473 145.138 55.3473 145.48C55.7613 145.643 56.3476 145.784 56.633 145.352C56.9278 144.907 56.4766 144.498 56.2208 144.123C55.9298 143.696 55.692 143.258 55.7388 142.72C56.6788 142.804 57.6202 142.889 58.5598 142.975C58.7368 143.071 58.9128 143.166 59.0875 143.262Z" fill="#8290A8"/>
<path d="M95.661 79.5767C95.7706 79.6467 95.8276 79.6625 95.8306 79.6876C95.9356 80.5197 95.8403 81.2861 95.0774 81.806C94.921 81.9117 94.7098 81.8607 94.6795 81.6718C94.5347 80.7876 94.9064 80.1205 95.661 79.5767V79.5767Z" fill="#3E4C69"/>
</svg>
